{
  "accessors": [
    {
      "bufferView": 2,
      "componentType": 5126,
      "count": 864,
      "max": [
        0.9824659824371338,
        0.11631400138139725,
        1.1022069454193115
      ],
      "min": [
        -0.9945819973945618,
        -0.11824599653482437,
        -0.6315159797668457
      ],
      "type": "VEC3"
    },
    {
      "bufferView": 2,
      "byteOffset": 10368,
      "componentType": 5126,
      "count": 864,
      "max": [
        1.0,
        1.0,
        1.0
      ],
      "min": [
        -1.0,
        -1.0,
        -1.0
      ],
      "type": "VEC3"
    },
    {
      "bufferView": 1,
      "componentType": 5126,
      "count": 864,
      "max": [
        0.9861999750137329,
        0.9817000031471252
      ],
      "min": [
        0.012799999676644802,
        0.014100000262260437
      ],
      "type": "VEC2"
    },
    {
      "bufferView": 0,
      "componentType": 5125,
      "count": 1332,
      "type": "SCALAR"
    },
    {
      "bufferView": 2,
      "byteOffset": 20736,
      "componentType": 5126,
      "count": 864,
      "max": [
        1.126405954360962,
        0.11631400138139725,
        0.969756007194519
      ],
      "min": [
        -0.6495500206947327,
        -0.11824599653482437,
        -0.9833430051803589
      ],
      "type": "VEC3"
    },
    {
      "bufferView": 2,
      "byteOffset": 31104,
      "componentType": 5126,
      "count": 864,
      "max": [
        1.0,
        1.0,
        1.0
      ],
      "min": [
        -1.0,
        -1.0,
        -1.0
      ],
      "type": "VEC3"
    },
    {
      "bufferView": 1,
      "byteOffset": 6912,
      "componentType": 5126,
      "count": 864,
      "max": [
        0.9843999743461609,
        0.9850999712944031
      ],
      "min": [
        0.030899999663233757,
        0.10369999706745148
      ],
      "type": "VEC2"
    },
    {
      "bufferView": 0,
      "byteOffset": 5328,
      "componentType": 5125,
      "count": 1332,
      "type": "SCALAR"
    },
    {
      "bufferView": 2,
      "byteOffset": 41472,
      "componentType": 5126,
      "count": 864,
      "max": [
        0.6499750018119812,
        0.11631400138139725,
        0.9609649777412415
      ],
      "min": [
        -1.119884967803955,
        -0.11824599653482437,
        -0.9799460172653198
      ],
      "type": "VEC3"
    },
    {
      "bufferView": 2,
      "byteOffset": 51840,
      "componentType": 5126,
      "count": 864,
      "max": [
        1.0,
        1.0,
        1.0
      ],
      "min": [
        -1.0,
        -1.0,
        -1.0
      ],
      "type": "VEC3"
    },
    {
      "bufferView": 1,
      "byteOffset": 13824,
      "componentType": 5126,
      "count": 864,
      "max": [
        0.9843000173568726,
        0.9850999712944031
      ],
      "min": [
        0.03920000046491623,
        0.013000000268220901
      ],
      "type": "VEC2"
    },
    {
      "bufferView": 0,
      "byteOffset": 10656,
      "componentType": 5125,
      "count": 1332,
      "type": "SCALAR"
    },
    {
      "bufferView": 2,
      "byteOffset": 62208,
      "componentType": 5126,
      "count": 864,
      "max": [
        0.9785370230674744,
        0.11631400138139725,
        0.6326410174369812
      ],
      "min": [
        -0.9863229990005493,
        -0.11824599653482437,
        -1.0949879884719849
      ],
      "type": "VEC3"
    },
    {
      "bufferView": 2,
      "byteOffset": 72576,
      "componentType": 5126,
      "count": 864,
      "max": [
        1.0,
        1.0,
        1.0
      ],
      "min": [
        -1.0,
        -1.0,
        -1.0
      ],
      "type": "VEC3"
    },
    {
      "bufferView": 1,
      "byteOffset": 20736,
      "componentType": 5126,
      "count": 864,
      "max": [
        0.9861000180244446,
        0.9850999712944031
      ],
      "min": [
        0.025499999523162842,
        0.013399999588727951
      ],
      "type": "VEC2"
    },
    {
      "bufferView": 0,
      "byteOffset": 15984,
      "componentType": 5125,
      "count": 1332,
      "type": "SCALAR"
    },
    {
      "bufferView": 2,
      "byteOffset": 82944,
      "componentType": 5126,
      "count": 432,
      "max": [
        0.9605919718742371,
        0.013306000269949436,
        1.0955510139465332
      ],
      "min": [
        -0.9540159702301025,
        -0.014897000044584274,
        -1.0947719812393188
      ],
      "type": "VEC3"
    },
    {
      "bufferView": 2,
      "byteOffset": 88128,
      "componentType": 5126,
      "count": 432,
      "max": [
        1.0,
        0.8660874366760254,
        1.0
      ],
      "min": [
        -1.0,
        -0.8660874366760254,
        -1.0
      ],
      "type": "VEC3"
    },
    {
      "bufferView": 1,
      "byteOffset": 27648,
      "componentType": 5126,
      "count": 432,
      "max": [
        0.9861999750137329,
        0.9854000210762024
      ],
      "min": [
        0.13729999959468842,
        0.015399999916553497
      ],
      "type": "VEC2"
    },
    {
      "bufferView": 0,
      "byteOffset": 21312,
      "componentType": 5125,
      "count": 720,
      "type": "SCALAR"
    },
    {
      "bufferView": 2,
      "byteOffset": 93312,
      "componentType": 5126,
      "count": 72,
      "max": [
        0.9519760012626648,
        0.2863140106201172,
        0.09287899732589722
      ],
      "min": [
        -0.9510759711265564,
        -0.2847430109977722,
        -1.157655954360962
      ],
      "type": "VEC3"
    },
    {
      "bufferView": 2,
      "byteOffset": 94176,
      "componentType": 5126,
      "count": 72,
      "max": [
        0.8186301589012146,
        0.9992867708206177,
        0.5805284976959229
      ],
      "min": [
        -0.8186301589012146,
        -0.9992867708206177,
        -0.5787856578826904
      ],
      "type": "VEC3"
    },
    {
      "bufferView": 1,
      "byteOffset": 31104,
      "componentType": 5126,
      "count": 72,
      "max": [
        0.3458000123500824,
        0.33149999380111694
      ],
      "min": [
        0.013299999758601189,
        0.026499999687075615
      ],
      "type": "VEC2"
    },
    {
      "bufferView": 0,
      "byteOffset": 24192,
      "componentType": 5125,
      "count": 120,
      "type": "SCALAR"
    },
    {
      "bufferView": 2,
      "byteOffset": 95040,
      "componentType": 5126,
      "count": 484,
      "max": [
        0.08172699809074402,
        0.24159500002861023,
        0.17415699362754822
      ],
      "min": [
        -0.08082800358533859,
        -0.23902100324630737,
        0.011601000092923641
      ],
      "type": "VEC3"
    },
    {
      "bufferView": 2,
      "byteOffset": 100848,
      "componentType": 5126,
      "count": 484,
      "max": [
        0.9659289121627808,
        1.0,
        0.9659289121627808
      ],
      "min": [
        -0.9659289121627808,
        -1.0,
        -0.9659289121627808
      ],
      "type": "VEC3"
    },
    {
      "bufferView": 1,
      "byteOffset": 31680,
      "componentType": 5126,
      "count": 484,
      "max": [
        0.9901000261306763,
        0.9896000027656555
      ],
      "min": [
        0.012900000438094139,
        0.06960000097751617
      ],
      "type": "VEC2"
    },
    {
      "bufferView": 0,
      "byteOffset": 24672,
      "componentType": 5125,
      "count": 744,
      "type": "SCALAR"
    },
    {
      "bufferView": 2,
      "byteOffset": 106656,
      "componentType": 5126,
      "count": 768,
      "max": [
        0.9497249722480774,
        0.1526709944009781,
        1.0421539545059204
      ],
      "min": [
        -0.9488250017166138,
        -0.15735399723052979,
        -0.8563960194587708
      ],
      "type": "VEC3"
    },
    {
      "bufferView": 2,
      "byteOffset": 115872,
      "componentType": 5126,
      "count": 768,
      "max": [
        0.6627969145774841,
        0.771303117275238,
        0.6627969145774841
      ],
      "min": [
        -0.6627969145774841,
        -0.771303117275238,
        -0.6627969145774841
      ],
      "type": "VEC3"
    },
    {
      "bufferView": 1,
      "byteOffset": 35552,
      "componentType": 5126,
      "count": 768,
      "max": [
        0.9517999887466431,
        0.9483000040054321
      ],
      "min": [
        0.01269999984651804,
        0.014600000344216824
      ],
      "type": "VEC2"
    },
    {
      "bufferView": 0,
      "byteOffset": 27648,
      "componentType": 5125,
      "count": 1152,
      "type": "SCALAR"
    },
    {
      "bufferView": 2,
      "byteOffset": 125088,
      "componentType": 5126,
      "count": 576,
      "max": [
        0.9497249722480774,
        0.1474130004644394,
        1.0421539545059204
      ],
      "min": [
        -0.9488250017166138,
        -0.1520960032939911,
        -0.8563960194587708
      ],
      "type": "VEC3"
    },
    {
      "bufferView": 2,
      "byteOffset": 132000,
      "componentType": 5126,
      "count": 576,
      "max": [
        0.9988808035850525,
        0.9356245398521423,
        0.9988808035850525
      ],
      "min": [
        -0.9988808035850525,
        -0.9356245398521423,
        -0.9988808035850525
      ],
      "type": "VEC3"
    },
    {
      "bufferView": 1,
      "byteOffset": 41696,
      "componentType": 5126,
      "count": 576,
      "max": [
        0.9060999751091003,
        0.9025999903678894
      ],
      "min": [
        0.01269999984651804,
        0.015300000086426735
      ],
      "type": "VEC2"
    },
    {
      "bufferView": 0,
      "byteOffset": 32256,
      "componentType": 5125,
      "count": 864,
      "type": "SCALAR"
    },
    {
      "bufferView": 2,
      "byteOffset": 138912,
      "componentType": 5126,
      "count": 384,
      "max": [
        0.7388150095939636,
        0.1526709944009781,
        0.8312439918518066
      ],
      "min": [
        -0.7379159927368164,
        -0.15735399723052979,
        -0.6454870104789734
      ],
      "type": "VEC3"
    },
    {
      "bufferView": 2,
      "byteOffset": 143520,
      "componentType": 5126,
      "count": 384,
      "max": [
        0.6830108761787415,
        0.7071111798286438,
        0.6830108761787415
      ],
      "min": [
        -0.6830108761787415,
        -0.7071111798286438,
        -0.6830108761787415
      ],
      "type": "VEC3"
    },
    {
      "bufferView": 1,
      "byteOffset": 46304,
      "componentType": 5126,
      "count": 384,
      "max": [
        0.8158000111579895,
        0.8019999861717224
      ],
      "min": [
        0.01269999984651804,
        0.016699999570846558
      ],
      "type": "VEC2"
    },
    {
      "bufferView": 0,
      "byteOffset": 35712,
      "componentType": 5125,
      "count": 576,
      "type": "SCALAR"
    }
  ],
  "asset": {
    "extras": {
      "author": "neutralize (https://sketchfab.com/neutralize)",
      "license": "CC-BY-4.0 (http://creativecommons.org/licenses/by/4.0/)",
      "source": "https://sketchfab.com/3d-models/ferris-wheel-d41b44b66efd4833abf5581a76d60efc",
      "title": "Ferris Wheel"
    },
    "generator": "Sketchfab-10.60.0",
    "version": "2.0"
  },
  "bufferViews": [
    {
      "buffer": 0,
      "byteLength": 38016,
      "name": "floatBufferViews",
      "target": 34963
    },
    {
      "buffer": 0,
      "byteLength": 49376,
      "byteOffset": 38016,
      "byteStride": 8,
      "name": "floatBufferViews",
      "target": 34962
    },
    {
      "buffer": 0,
      "byteLength": 148128,
      "byteOffset": 87392,
      "byteStride": 12,
      "name": "floatBufferViews",
      "target": 34962
    }
  ],
  "buffers": [
    {
      "byteLength": 235520,
      "uri": "scene.bin"
    }
  ],
  "materials": [
    {
      "doubleSided": true,
      "name": "cabin_green",
      "pbrMetallicRoughness": {
        "baseColorFactor": [
          0.072272,
          0.417885,
          0.318547,
          1.0
        ],
        "metallicFactor": 0.0
      }
    },
    {
      "doubleSided": true,
      "name": "cabin_blue",
      "pbrMetallicRoughness": {
        "baseColorFactor": [
          0.066626,
          0.177888,
          0.603827,
          1.0
        ],
        "metallicFactor": 0.0
      }
    },
    {
      "doubleSided": true,
      "name": "cabin_orange",
      "pbrMetallicRoughness": {
        "baseColorFactor": [
          0.617207,
          0.327778,
          0.090842,
          1.0
        ],
        "metallicFactor": 0.0
      }
    },
    {
      "doubleSided": true,
      "name": "cabin_red",
      "pbrMetallicRoughness": {
        "baseColorFactor": [
          0.62396,
          0.090842,
          0.046665,
          1.0
        ],
        "metallicFactor": 0.0
      }
    },
    {
      "doubleSided": true,
      "name": "ferris_wheel_blue",
      "pbrMetallicRoughness": {
        "baseColorFactor": [
          0.291771,
          0.64448,
          0.775822,
          1.0
        ],
        "metallicFactor": 0.0
      }
    },
    {
      "doubleSided": true,
      "name": "ferris_wheel_legs_red",
      "pbrMetallicRoughness": {
        "baseColorFactor": [
          0.62396,
          0.068478,
          0.05448,
          1.0
        ],
        "metallicFactor": 0.0
      }
    },
    {
      "doubleSided": true,
      "name": "ferris_wheel_orange",
      "pbrMetallicRoughness": {
        "baseColorFactor": [
          1.0,
          0.590619,
          0.147027,
          1.0
        ],
        "metallicFactor": 0.0
      }
    },
    {
      "doubleSided": true,
      "name": "ferris_wheel_red",
      "pbrMetallicRoughness": {
        "baseColorFactor": [
          0.686685,
          0.141263,
          0.104617,
          1.0
        ],
        "metallicFactor": 0.0
      }
    },
    {
      "doubleSided": true,
      "name": "ferris_wheel_white",
      "pbrMetallicRoughness": {
        "baseColorFactor": [
          0.67383,
          0.67383,
          0.67383,
          1.0
        ],
        "metallicFactor": 0.0
      }
    },
    {
      "doubleSided": true,
      "name": "ferris_wheel_yellow",
      "pbrMetallicRoughness": {
        "baseColorFactor": [
          0.651406,
          0.473532,
          0.076185,
          1.0
        ],
        "metallicFactor": 0.0
      }
    }
  ],
  "meshes": [
    {
      "name": "Object_0",
      "primitives": [
        {
          "attributes": {
            "NORMAL": 1,
            "POSITION": 0,
            "TEXCOORD_0": 2
          },
          "indices": 3,
          "material": 0,
          "mode": 4
        }
      ]
    },
    {
      "name": "Object_1",
      "primitives": [
        {
          "attributes": {
            "NORMAL": 5,
            "POSITION": 4,
            "TEXCOORD_0": 6
          },
          "indices": 7,
          "material": 1,
          "mode": 4
        }
      ]
    },
    {
      "name": "Object_2",
      "primitives": [
        {
          "attributes": {
            "NORMAL": 9,
            "POSITION": 8,
            "TEXCOORD_0": 10
          },
          "indices": 11,
          "material": 2,
          "mode": 4
        }
      ]
    },
    {
      "name": "Object_3",
      "primitives": [
        {
          "attributes": {
            "NORMAL": 13,
            "POSITION": 12,
            "TEXCOORD_0": 14
          },
          "indices": 15,
          "material": 3,
          "mode": 4
        }
      ]
    },
    {
      "name": "Object_4",
      "primitives": [
        {
          "attributes": {
            "NORMAL": 17,
            "POSITION": 16,
            "TEXCOORD_0": 18
          },
          "indices": 19,
          "material": 4,
          "mode": 4
        }
      ]
    },
    {
      "name": "Object_5",
      "primitives": [
        {
          "attributes": {
            "NORMAL": 21,
            "POSITION": 20,
            "TEXCOORD_0": 22
          },
          "indices": 23,
          "material": 5,
          "mode": 4
        }
      ]
    },
    {
      "name": "Object_6",
      "primitives": [
        {
          "attributes": {
            "NORMAL": 25,
            "POSITION": 24,
            "TEXCOORD_0": 26
          },
          "indices": 27,
          "material": 6,
          "mode": 4
        }
      ]
    },
    {
      "name": "Object_7",
      "primitives": [
        {
          "attributes": {
            "NORMAL": 29,
            "POSITION": 28,
            "TEXCOORD_0": 30
          },
          "indices": 31,
          "material": 7,
          "mode": 4
        }
      ]
    },
    {
      "name": "Object_8",
      "primitives": [
        {
          "attributes": {
            "NORMAL": 33,
            "POSITION": 32,
            "TEXCOORD_0": 34
          },
          "indices": 35,
          "material": 8,
          "mode": 4
        }
      ]
    },
    {
      "name": "Object_9",
      "primitives": [
        {
          "attributes": {
            "NORMAL": 37,
            "POSITION": 36,
            "TEXCOORD_0": 38
          },
          "indices": 39,
          "material": 9,
          "mode": 4
        }
      ]
    }
  ],
  "nodes": [
    {
      "children": [
        1
      ],
      "matrix": [
        1.0,
        0.0,
        0.0,
        0.0,
        0.0,
        2.220446049250313e-16,
        -1.0,
        0.0,
        0.0,
        1.0,
        2.220446049250313e-16,
        0.0,
        0.0,
        0.0,
        0.0,
        1.0
      ],
      "name": "Sketchfab_model"
    },
    {
      "children": [
        2,
        3,
        4,
        5,
        6,
        7,
        8,
        9,
        10,
        11
      ],
      "name": "PUSHILIN_ferris_wheel.obj.cleaner.materialmerger.gles"
    },
    {
      "mesh": 0,
      "name": "Object_2"
    },
    {
      "mesh": 1,
      "name": "Object_3"
    },
    {
      "mesh": 2,
      "name": "Object_4"
    },
    {
      "mesh": 3,
      "name": "Object_5"
    },
    {
      "mesh": 4,
      "name": "Object_6"
    },
    {
      "mesh": 5,
      "name": "Object_7"
    },
    {
      "mesh": 6,
      "name": "Object_8"
    },
    {
      "mesh": 7,
      "name": "Object_9"
    },
    {
      "mesh": 8,
      "name": "Object_10"
    },
    {
      "mesh": 9,
      "name": "Object_11"
    }
  ],
  "scene": 0,
  "scenes": [
    {
      "name": "Sketchfab_Scene",
      "nodes": [
        0
      ]
    }
  ]
}
