<?xml version="1.0" encoding="utf-8"?>
<!-- Generator: Adobe Illustrator 25.4.1, SVG Export Plug-In . SVG Version: 6.00 Build 0)  -->
<svg version="1.1" id="Filled" xmlns="http://www.w3.org/2000/svg" xmlns:xlink="http://www.w3.org/1999/xlink" x="0px" y="0px"
	 viewBox="0 0 24 24" style="enable-background:new 0 0 24 24;" xml:space="preserve">
<style type="text/css">
	.st0{fill:#722E9A;}
</style>
<path class="st0" d="M23.4,10.5l-8.5-9.2c-1.5-1.6-4-1.7-5.7-0.2c0,0-0.1,0.1-0.1,0.2l-8.5,9.2C0.2,10.9,0,11.4,0,11.9V21
	c0,1.7,1.3,3,3,3h4v-6c0-1.8,1-3.5,2.6-4.4c0.1,0,0.1-0.1,0.2-0.1c0.2-0.1,0.4-0.2,0.6-0.2c0.1,0,0.3-0.1,0.4-0.1s0.3-0.1,0.5-0.1
	c0.1,0,0.2,0,0.3-0.1c0.2,0,0.3,0,0.5,0l0,0l0,0c0.3,0,0.6,0,0.9,0.1h0.1c0.3,0.1,0.6,0.1,0.8,0.3H14c0.3,0.1,0.5,0.2,0.7,0.4
	l0.1,0.1c0.2,0.2,0.4,0.3,0.6,0.5l0.1,0.1c0.2,0.2,0.4,0.4,0.5,0.6l0.1,0.1c0.2,0.2,0.3,0.5,0.4,0.8v0.1c0.1,0.3,0.2,0.6,0.3,0.9
	c0,0,0,0,0,0.1c0.1,0.3,0.1,0.6,0.1,1v6h4c1.7,0,3-1.3,3-3V12C24,11.4,23.8,10.9,23.4,10.5z"/>
<path class="st0" d="M12,15c-1.7,0-3,1.3-3,3v6h6v-6C15,16.3,13.7,15,12,15z"/>
</svg>
