<?xml version="1.0"?>
<svg xmlns="http://www.w3.org/2000/svg" xmlns:xlink="http://www.w3.org/1999/xlink" xmlns:svgjs="http://svgjs.com/svgjs" version="1.1" width="512" height="512" x="0" y="0" viewBox="0 0 511 511.999" style="enable-background:new 0 0 512 512" xml:space="preserve" class=""><g><path xmlns="http://www.w3.org/2000/svg" d="m398.976562 223.707031s-24.929687-42.570312-24.929687-42.570312c-.03125-.058594-1.046875-1.46875-1.046875-1.46875-1.0625-1.234375-2.433594-2.222657-4.050781-2.832031-.011719-.003907-130.066407-43.539063-130.066407-43.539063v-30.4375h16.4375c3.667969 0 7.039063-2.007813 8.789063-5.230469s1.597656-7.140625-.398437-10.21875l-53.789063-82.855468c-1.84375-2.839844-5-4.554688-8.386719-4.554688-3.390625 0-6.546875 1.714844-8.390625 4.554688l-53.789062 82.855468c-1.996094 3.078125-2.148438 6.996094-.398438 10.21875s5.121094 5.226563 8.785157 5.226563h16.4375v30.441406s-130.285157 43.625-130.3125 43.636719c-2.113282.859375-3.785157 2.375-4.863282 4.230468l-24.914062 42.542969c-3.863282 6.59375-4.648438 14.523438-2.164063 21.75 2.488281 7.226563 7.988281 12.988281 15.089844 15.808594l10.628906 4.222656v161.960938c0 11.902343 7.488281 22.714843 18.632813 26.902343l151.738281 57.007813c1.132813.425781 2.324219.640625 3.519531.640625 1.191406 0 2.382813-.214844 3.515625-.640625l151.738281-57.007813c11.144532-4.1875 18.632813-15 18.632813-26.902343v-161.957031l10.628906-4.222657c7.101563-2.824219 12.601563-8.585937 15.089844-15.8125 2.484375-7.226562 1.699219-15.152343-2.164063-21.75zm-197.441406-195.34375 35.375 54.492188h-8.023437c-5.523438 0-10 4.480469-10 10v88.128906h-34.703125v-88.128906c0-5.519531-4.476563-10-10-10h-8.023438zm-27.355468 172.625h54.703124c5.523438 0 10-4.476562 10-10v-36.601562l97.007813 32.46875-134.355469 51.773437-134.359375-51.773437 97.003907-32.46875v36.601562c0 5.523438 4.480468 10 10 10zm-153.339844 37.960938c-.34375-1.003907-.738282-3.003907.507812-5.136719l20.632813-35.234375 144.328125 55.617187-24.984375 37.609376c-1.605469 2.417968-4.730469 3.394531-7.433594 2.324218l-129.488281-51.449218c-2.296875-.910157-3.21875-2.730469-3.5625-3.730469zm334.582031 188.5c0 3.621093-2.277344 6.90625-5.667969 8.183593l-138.21875 51.925782v-49.4375c0-5.523438-4.480468-10-10-10-5.523437 0-10 4.476562-10 10v49.4375l-138.222656-51.925782c-3.390625-1.277343-5.667969-4.5625-5.667969-8.183593v-154.011719l98.863281 39.277344c3.113282 1.238281 6.363282 1.832031 9.582032 1.832031 8.585937 0 16.941406-4.222656 21.890625-11.675781l13.554687-20.402344v65.203125c0 5.523437 4.476563 10 10 10 5.519532 0 10-4.476563 10-10v-65.203125l13.550782 20.402344c4.949218 7.453125 13.304687 11.675781 21.890624 11.675781 3.214844 0 6.46875-.59375 9.582032-1.832031l98.863281-39.277344zm26.804687-188.5c-.34375 1-1.265624 2.820312-3.5625 3.730469l-129.488281 51.449218c-2.699219 1.070313-5.824219.09375-7.433593-2.324218l-24.984376-37.609376 144.328126-55.613281 20.628906 35.230469c1.25 2.132812.855468 4.132812.511718 5.136719zm0 0" fill="#ffe863" data-original="#000000" style="" class=""/><path xmlns="http://www.w3.org/2000/svg" d="m201.535156 402.710938c-4.238281 0-8.109375-2.773438-9.472656-6.785157-1.359375-4 .015625-8.585937 3.382812-11.148437 3.199219-2.429688 7.609376-2.707032 11.09375-.710938 3.554688 2.039063 5.539063 6.234375 4.855469 10.277344-.808593 4.765625-5.019531 8.367188-9.859375 8.367188zm0 0" fill="#ffe863" data-original="#000000" style="" class=""/></g></svg>
