<?xml version="1.0" encoding="utf-8"?>
<!-- Generator: Adobe Illustrator 25.4.1, SVG Export Plug-In . SVG Version: 6.00 Build 0)  -->
<svg version="1.1" id="Layer_1" xmlns="http://www.w3.org/2000/svg" xmlns:xlink="http://www.w3.org/1999/xlink" x="0px" y="0px"
	 viewBox="0 0 24 24" style="enable-background:new 0 0 24 24;" xml:space="preserve">
<style type="text/css">
	.st0{fill:#722E9A;}
</style>
<path class="st0" d="M4.9,8c0-4.4,3.5-8,7.8-8s7.8,3.6,7.8,8s-3.5,8-7.8,8S4.9,12.4,4.9,8z M22.2,13.4c-0.4-0.3-1.1-0.2-1.4,0.3
	c-3.1,4.6-9.2,5.7-13.6,2.6s-5.6-9.4-2.5-14C4.8,2.1,5,1.9,5.2,1.6c0.3-0.4,0.3-1.1-0.1-1.4S4-0.1,3.7,0.4C-0.4,5.5,0.3,13,5.3,17.2
	c1.8,1.6,4.1,2.5,6.5,2.7V22H7.9c-0.5,0-1,0.4-1,1s0.4,1,1,1h9.8c0.5,0,1-0.4,1-1s-0.4-1-1-1h-3.9v-2.1c3.5-0.3,6.7-2.2,8.7-5.2
	C22.8,14.3,22.7,13.7,22.2,13.4L22.2,13.4z"/>
</svg>
