{
  "accessors": [
    {
      "bufferView": 2,
      "componentType": 5126,
      "count": 2535,
      "max": [
        3.8067312240600586,
        17.122270584106445,
        5.0847210884094238
      ],
      "min": [
        -6.572420597076416,
        -0.10263124108314514,
        -5.7595586776733398
      ],
      "type": "VEC3"
    },
    {
      "bufferView": 2,
      "byteOffset": 30420,
      "componentType": 5126,
      "count": 2535,
      "max": [
        0.99984872341156006,
        0.99995791912078857,
        0.99976682662963867
      ],
      "min": [
        -0.99912035465240479,
        -0.99730396270751953,
        -0.9998321533203125
      ],
      "type": "VEC3"
    },
    {
      "bufferView": 1,
      "componentType": 5126,
      "count": 2535,
      "max": [
        0.98497503995895386,
        0.98526638746261597
      ],
      "min": [
        0.014743788167834282,
        0.014811426401138306
      ],
      "type": "VEC2"
    },
    {
      "bufferView": 1,
      "byteOffset": 20280,
      "componentType": 5126,
      "count": 2535,
      "max": [
        0.98497503995895386,
        0.98526638746261597
      ],
      "min": [
        0.014743788167834282,
        0.014811426401138306
      ],
      "type": "VEC2"
    },
    {
      "bufferView": 0,
      "componentType": 5125,
      "count": 8688,
      "max": [
        2534
      ],
      "min": [
        0
      ],
      "type": "SCALAR"
    },
    {
      "bufferView": 2,
      "byteOffset": 60840,
      "componentType": 5126,
      "count": 146,
      "max": [
        5.3018698692321777,
        0.33959007263183594,
        6.0130152702331543
      ],
      "min": [
        -5.4663810729980469,
        -0.27054992318153381,
        -6.0154843330383301
      ],
      "type": "VEC3"
    },
    {
      "bufferView": 2,
      "byteOffset": 62592,
      "componentType": 5126,
      "count": 146,
      "max": [
        0.81374591588973999,
        0.99991524219512939,
        0.82654964923858643
      ],
      "min": [
        -0.82517027854919434,
        -0.99991536140441895,
        -0.79992657899856567
      ],
      "type": "VEC3"
    },
    {
      "bufferView": 1,
      "byteOffset": 40560,
      "componentType": 5126,
      "count": 146,
      "max": [
        0.96718841791152954,
        0.96718841791152954
      ],
      "min": [
        0.032811522483825684,
        0.032811522483825684
      ],
      "type": "VEC2"
    },
    {
      "bufferView": 1,
      "byteOffset": 41728,
      "componentType": 5126,
      "count": 146,
      "max": [
        0.96718841791152954,
        0.96718841791152954
      ],
      "min": [
        0.032811522483825684,
        0.032811522483825684
      ],
      "type": "VEC2"
    },
    {
      "bufferView": 0,
      "byteOffset": 34752,
      "componentType": 5125,
      "count": 768,
      "max": [
        145
      ],
      "min": [
        0
      ],
      "type": "SCALAR"
    }
  ],
  "asset": {
    "extras": {
      "author": "Clayton Creative (https://sketchfab.com/clayton_creative)",
      "license": "CC-BY-4.0 (http://creativecommons.org/licenses/by/4.0/)",
      "source": "https://sketchfab.com/3d-models/stylized-tree-03-clean-d3af590a640b40ca98c2d669e83182e8",
      "title": "Stylized Tree 03 Clean"
    },
    "generator": "Sketchfab-9.24.0",
    "version": "2.0"
  },
  "bufferViews": [
    {
      "buffer": 0,
      "byteLength": 37824,
      "byteOffset": 0,
      "name": "floatBufferViews",
      "target": 34963
    },
    {
      "buffer": 0,
      "byteLength": 42896,
      "byteOffset": 37824,
      "byteStride": 8,
      "name": "floatBufferViews",
      "target": 34962
    },
    {
      "buffer": 0,
      "byteLength": 64344,
      "byteOffset": 80720,
      "byteStride": 12,
      "name": "floatBufferViews",
      "target": 34962
    }
  ],
  "buffers": [
    {
      "byteLength": 145064,
      "uri": "scene.bin"
    }
  ],
  "images": [
    {
      "uri": "textures/MergedBake_Bake1.001_baseColor.png"
    },
    {
      "uri": "textures/MergedBake_Bake1.001_metallicRoughness.png"
    },
    {
      "uri": "textures/Tree_03_Ground_Bake1_baked_baseColor.png"
    },
    {
      "uri": "textures/Tree_03_Ground_Bake1_baked_metallicRoughness.png"
    }
  ],
  "materials": [
    {
      "doubleSided": true,
      "emissiveFactor": [
        0,
        0,
        0
      ],
      "name": "MergedBake_Bake1.001",
      "pbrMetallicRoughness": {
        "baseColorFactor": [
          1,
          1,
          1,
          1
        ],
        "baseColorTexture": {
          "index": 0,
          "texCoord": 0
        },
        "metallicFactor": 0,
        "metallicRoughnessTexture": {
          "index": 1,
          "texCoord": 0
        },
        "roughnessFactor": 1
      }
    },
    {
      "doubleSided": true,
      "emissiveFactor": [
        0,
        0,
        0
      ],
      "name": "Tree_03_Ground_Bake1_baked",
      "pbrMetallicRoughness": {
        "baseColorFactor": [
          1,
          1,
          1,
          1
        ],
        "baseColorTexture": {
          "index": 2,
          "texCoord": 0
        },
        "metallicFactor": 0,
        "metallicRoughnessTexture": {
          "index": 3,
          "texCoord": 0
        },
        "roughnessFactor": 1
      }
    }
  ],
  "meshes": [
    {
      "name": "TreeBark_03_Clean_MergedBake_Bake1.001_0",
      "primitives": [
        {
          "attributes": {
            "NORMAL": 1,
            "POSITION": 0,
            "TEXCOORD_0": 2,
            "TEXCOORD_1": 3
          },
          "indices": 4,
          "material": 0,
          "mode": 4
        }
      ]
    },
    {
      "name": "Tree_03_Ground_Baked_Tree_03_Ground_Bake1_baked_0",
      "primitives": [
        {
          "attributes": {
            "NORMAL": 6,
            "POSITION": 5,
            "TEXCOORD_0": 7,
            "TEXCOORD_1": 8
          },
          "indices": 9,
          "material": 1,
          "mode": 4
        }
      ]
    }
  ],
  "nodes": [
    {
      "children": [
        1
      ],
      "name": "RootNode (gltf orientation matrix)",
      "rotation": [
        -0.70710678118654746,
        -0,
        -0,
        0.70710678118654757
      ]
    },
    {
      "children": [
        2
      ],
      "name": "RootNode (model correction matrix)"
    },
    {
      "children": [
        3
      ],
      "matrix": [
        1,
        0,
        0,
        0,
        0,
        0,
        1,
        0,
        0,
        -1,
        0,
        0,
        0,
        0,
        0,
        1
      ],
      "name": "ffaa11fc79074a4297dca012c19fa333.fbx"
    },
    {
      "children": [
        4
      ],
      "name": "RootNode"
    },
    {
      "children": [
        5,
        6
      ],
      "matrix": [
        100,
        0,
        0,
        0,
        0,
        99.999999999999901,
        4.371138828673792e-06,
        0,
        0,
        -4.371138828673792e-06,
        99.999999999999901,
        0,
        0,
        0,
        0,
        1
      ],
      "name": "TreeBark_03_Clean"
    },
    {
      "mesh": 0,
      "name": "TreeBark_03_Clean_MergedBake_Bake1.001_0"
    },
    {
      "children": [
        7
      ],
      "matrix": [
        1,
        0,
        0,
        0,
        0,
        1,
        0,
        0,
        0,
        0,
        1,
        0,
        0.19654488563537598,
        -0.15461315214633942,
        -0.22367283701896667,
        1
      ],
      "name": "Tree_03_Ground_Baked"
    },
    {
      "mesh": 1,
      "name": "Tree_03_Ground_Baked_Tree_03_Ground_Bake1_baked_0"
    }
  ],
  "samplers": [
    {
      "magFilter": 9729,
      "minFilter": 9987,
      "wrapS": 10497,
      "wrapT": 10497
    }
  ],
  "scene": 0,
  "scenes": [
    {
      "name": "OSG_Scene",
      "nodes": [
        0
      ]
    }
  ],
  "textures": [
    {
      "sampler": 0,
      "source": 0
    },
    {
      "sampler": 0,
      "source": 1
    },
    {
      "sampler": 0,
      "source": 2
    },
    {
      "sampler": 0,
      "source": 3
    }
  ]
}

