<svg id="Layer_1" data-name="Layer 1" xmlns="http://www.w3.org/2000/svg" viewBox="0 0 20 20"><defs><style>.cls-1{fill-rule:evenodd;}</style></defs><g id="Page-1"><g id="Dribbble-Light-Preview"><g id="icons"><path id="linkedin-_161_" data-name="linkedin-[#161]" class="cls-1" d="M20,20H16V13c0-1.92-.85-3-2.37-3S11,11.13,11,13v7H7V7h4V8.46a4.83,4.83,0,0,1,4.08-2.2C17.91,6.26,20,8,20,11.56V20ZM2.44,4.92A2.45,2.45,0,0,1,0,2.46a2.44,2.44,0,1,1,4.88,0A2.45,2.45,0,0,1,2.44,4.92ZM0,20H5V7H0Z"/></g></g></g></svg>