<?xml version="1.0" encoding="utf-8"?>
<!-- Generator: Adobe Illustrator 25.4.1, SVG Export Plug-In . SVG Version: 6.00 Build 0)  -->
<svg version="1.1"
	 id="Layer_1" xmlns:cc="http://creativecommons.org/ns#" xmlns:dc="http://purl.org/dc/elements/1.1/" xmlns:inkscape="http://www.inkscape.org/namespaces/inkscape" xmlns:rdf="http://www.w3.org/1999/02/22-rdf-syntax-ns#" xmlns:sodipodi="http://sodipodi.sourceforge.net/DTD/sodipodi-0.dtd" xmlns:svg="http://www.w3.org/2000/svg"
	 xmlns="http://www.w3.org/2000/svg" xmlns:xlink="http://www.w3.org/1999/xlink" x="0px" y="0px" viewBox="0 0 100 125"
	 style="enable-background:new 0 0 100 125;" xml:space="preserve">
<style type="text/css">
	.st0{fill-rule:evenodd;clip-rule:evenodd;}
</style>
<g transform="translate(0,-270.54165)">
	<path class="st0" d="M51.8,281.3c-11.4,0-20.6,9.3-20.6,20.6s9.3,20.6,20.6,20.6c11.3,0,20.4-9.1,20.6-20.3c0-0.1,0-0.2,0-0.3
		c0-0.1,0-0.2,0-0.3C72.2,290.4,63.1,281.3,51.8,281.3z M51.8,284.3c9.8,0,17.6,7.9,17.6,17.6c0,9.8-7.9,17.6-17.6,17.6
		s-17.6-7.9-17.6-17.6C34.2,292.2,42,284.3,51.8,284.3L51.8,284.3z M74.5,305.3c-0.4,0-0.9,0.2-1.2,0.5c-0.5,0.6-0.5,1.6,0.2,2.1
		c0,0,0,0,0,0c4.6,3.9,9.9,6.9,15.5,9c1.3,0.5,2.6,0.9,4,1.2l-2.8,1.6c-0.7,0.4-1,1.3-0.5,2.1c0.3,0.5,0.7,0.7,1.3,0.7v0
		c0,0,0,0,0.1,0c0.3,0,0.5-0.1,0.7-0.2l6-3.5c0.1-0.1,0.2-0.1,0.3-0.2c0,0,0.1-0.1,0.1-0.1c0.1-0.1,0.1-0.2,0.2-0.3c0,0,0,0,0,0
		c0,0,0,0,0,0c0-0.1,0.1-0.1,0.1-0.2c0,0,0,0,0-0.1c0,0,0,0,0,0c0,0,0-0.1,0-0.1c0,0,0-0.1,0-0.1c0,0,0,0,0,0c0,0,0,0,0,0
		c0,0,0,0,0-0.1c0,0,0,0,0,0c0,0,0,0,0,0c0,0,0,0,0,0c0,0,0,0,0,0c0,0,0,0,0,0c0,0,0,0,0,0c0,0,0,0,0,0c0,0,0,0,0,0c0,0,0,0,0-0.1
		c0-0.1,0-0.2-0.1-0.3c0-0.1-0.1-0.2-0.2-0.3l-3.5-6c-0.4-0.7-1.3-1-2.1-0.5c-0.7,0.4-1,1.3-0.5,2.1l1.8,3.1c-1.3-0.3-2.7-0.8-4-1.2
		c-5.3-1.9-10.3-4.8-14.6-8.4C75.2,305.4,74.9,305.3,74.5,305.3L74.5,305.3z M22,310.8c-11.4,0-20.6,9.3-20.6,20.6
		c0,11.4,9.3,20.6,20.6,20.6c11.3,0,20.4-9.1,20.6-20.3c0-0.1,0-0.2,0-0.3c0-0.1,0-0.2,0-0.3C42.5,319.9,33.3,310.8,22,310.8
		L22,310.8z M22,313.8c9.8,0,17.6,7.9,17.6,17.6c0,9.8-7.9,17.6-17.6,17.6s-17.6-7.9-17.6-17.6C4.4,321.7,12.3,313.8,22,313.8z
		 M91.5,326.4C91.5,326.4,91.5,326.4,91.5,326.4c-0.4,0-0.8,0.2-1.1,0.4c-0.6,0.6-0.6,1.5,0,2.1c0,0,0,0,0,0l2.4,2.3H46.5
		c-0.8,0-1.5,0.7-1.5,1.5c0,0.8,0.7,1.5,1.5,1.5h46.4l-2.4,2.3c-0.6,0.6-0.6,1.5,0,2.1c0.6,0.6,1.5,0.6,2.1,0l5-4.9c0,0,0,0,0,0
		c0,0,0,0,0,0c0,0,0,0,0,0c0,0,0,0,0,0c0,0,0,0,0,0c0,0,0,0,0,0c0,0,0,0,0,0c0,0,0,0,0,0c0,0,0,0,0,0c0,0,0,0,0,0c0,0,0,0,0,0
		c0,0,0,0,0,0c0,0,0,0,0,0c0,0,0,0,0,0c0,0,0,0,0,0c0,0,0,0,0,0c0,0,0,0,0,0c0,0,0,0,0,0c0,0,0,0,0,0c0,0,0,0,0,0c0,0,0,0,0,0
		c0,0,0,0,0,0c0,0,0,0,0,0c0,0,0,0,0,0c0,0,0,0,0,0c0,0,0,0,0,0c0,0,0,0,0,0c0,0,0,0,0,0c0,0,0,0,0,0c0,0,0,0,0,0c0,0,0,0,0,0
		c0,0,0,0,0,0c0,0,0,0,0,0c0,0,0,0,0,0c0,0,0,0,0,0c0,0,0,0,0,0c0,0,0,0,0,0c0,0,0,0,0,0c0,0,0,0,0,0c0,0,0,0,0,0c0,0,0,0,0,0
		c0,0,0,0,0,0c0,0,0,0,0,0c0,0,0,0,0,0c0,0,0,0,0,0c0,0,0-0.1,0-0.1c0,0,0,0,0,0c0,0,0,0,0,0c0,0,0,0,0,0c0,0,0,0,0,0c0,0,0,0,0,0
		c0,0,0,0,0,0c0,0,0,0,0,0c0,0,0,0,0,0c0,0,0,0,0,0c0,0,0,0,0,0c0,0,0,0,0,0c0,0,0,0,0,0c0,0,0,0,0-0.1c0,0,0,0,0,0s0,0,0,0
		c0,0,0,0,0,0c0,0,0,0,0,0c0,0,0,0,0,0c0,0,0,0,0,0c0,0,0,0,0,0c0,0,0,0,0,0c0,0,0,0,0,0c0,0,0,0,0,0c0,0,0,0,0,0c0,0,0,0,0,0
		c0,0,0,0,0,0c0,0,0,0,0,0c0,0,0,0,0,0c0,0,0,0,0,0c0,0,0,0,0,0c0,0,0,0,0,0c0,0,0,0,0,0s0,0,0,0c0,0,0,0,0,0c0,0,0,0,0,0
		c0,0,0,0,0,0c0,0,0,0,0,0c0,0,0,0,0,0c0,0,0,0,0,0c0,0,0,0,0,0c0,0,0,0,0,0c0,0,0,0,0,0c0,0,0,0,0,0c0,0,0,0,0,0c0,0,0,0,0,0
		c0,0,0,0,0,0c0,0,0,0,0,0c0,0,0,0,0-0.1c0,0,0,0,0,0c0,0,0,0,0,0c0,0,0,0,0,0c0,0,0,0,0,0c0,0,0,0,0,0c0,0,0,0,0,0c0,0,0,0,0,0
		c0,0,0,0,0,0c0,0,0,0,0,0c0,0,0,0,0,0c0,0,0,0,0,0c0,0,0,0,0,0c0,0,0,0,0,0c0,0,0,0,0,0c0,0,0,0,0,0c0,0,0,0,0,0c0,0,0,0,0,0
		c0,0,0,0,0,0c0,0,0,0,0,0c0,0,0,0,0,0c0,0,0,0,0,0c0,0,0,0,0,0c0,0,0,0,0,0c0,0,0,0,0,0c0,0,0,0,0,0c0,0,0,0,0,0c0,0,0,0,0,0
		c0,0,0,0,0,0l0,0l-5-4.9C92.3,326.5,91.9,326.3,91.5,326.4L91.5,326.4z M91,340.3c-0.5,0-1,0.3-1.3,0.7c-0.4,0.7-0.2,1.6,0.5,2.1
		l2.8,1.6c-1.3,0.4-2.7,0.8-4,1.2c-5.7,2-10.9,5.1-15.5,9c-0.6,0.5-0.7,1.5-0.2,2.1c0,0,0,0,0,0c0.5,0.6,1.5,0.7,2.1,0.2
		c0,0,0,0,0,0c4.3-3.6,9.3-6.5,14.6-8.4c1.3-0.5,2.6-0.9,4-1.2l-1.8,3.1c-0.4,0.7-0.2,1.6,0.5,2.1c0.7,0.4,1.6,0.2,2.1-0.5l3.5-6
		c0.1-0.1,0.1-0.2,0.2-0.3c0-0.1,0.1-0.2,0.1-0.3c0,0,0,0,0-0.1c0,0,0,0,0,0c0,0,0,0,0,0c0,0,0,0,0,0c0,0,0,0,0,0c0,0,0,0,0,0
		c0,0,0,0,0,0c0,0,0,0,0,0c0,0,0,0,0,0c0,0,0,0,0-0.1c0,0,0,0,0,0c0,0,0,0,0,0c0,0,0-0.1,0-0.1c0,0,0-0.1,0-0.1c0,0,0,0,0,0
		c0,0,0,0,0-0.1c0-0.1,0-0.1-0.1-0.2c0,0,0,0,0,0c0,0,0,0,0,0c0-0.1-0.1-0.2-0.2-0.3c0,0-0.1-0.1-0.1-0.1c-0.1-0.1-0.2-0.2-0.3-0.2
		l-6-3.5C91.6,340.4,91.3,340.4,91,340.3C91.1,340.3,91.1,340.3,91,340.3L91,340.3z M51.8,340.4c-11.4,0-20.6,9.3-20.6,20.6
		c0,11.4,9.3,20.6,20.6,20.6c11.3,0,20.4-9.1,20.6-20.3c0-0.1,0-0.2,0-0.3c0-0.1,0-0.2,0-0.3C72.2,349.5,63.1,340.3,51.8,340.4
		L51.8,340.4z M51.8,343.4c9.8,0,17.6,7.9,17.6,17.6s-7.9,17.6-17.6,17.6s-17.6-7.9-17.6-17.6S42,343.4,51.8,343.4z"/>
</g>
</svg>
