<?xml version="1.0" encoding="utf-8"?>
<!-- Generator: Adobe Illustrator 25.4.1, SVG Export Plug-In . SVG Version: 6.00 Build 0)  -->
<svg version="1.1" id="Layer_1" xmlns="http://www.w3.org/2000/svg" xmlns:xlink="http://www.w3.org/1999/xlink" x="0px" y="0px"
	 viewBox="0 0 103 157.5" style="enable-background:new 0 0 103 157.5;" xml:space="preserve">
<g>
	<path d="M48.6,59.7h5.7c0.6,0,1-0.4,1-1v-7c0-0.6-0.4-1-1-1h-5.7c-0.6,0-1,0.4-1,1v7C47.6,59.3,48.1,59.7,48.6,59.7z"/>
	<path d="M26.4,101.6h6.8c0.6,0,1-0.4,1-1s-0.4-1-1-1h-6.8c-0.6,0-1,0.4-1,1S25.8,101.6,26.4,101.6z"/>
	<path d="M26.4,62.9h6.8c0.6,0,1-0.4,1-1s-0.4-1-1-1h-6.8c-0.6,0-1,0.4-1,1S25.8,62.9,26.4,62.9z"/>
	<path d="M76.6,99.6h-6.8c-0.6,0-1,0.4-1,1s0.4,1,1,1h6.8c0.6,0,1-0.4,1-1S77.1,99.6,76.6,99.6z"/>
	<path d="M76.6,60.9h-6.8c-0.6,0-1,0.4-1,1s0.4,1,1,1h6.8c0.6,0,1-0.4,1-1S77.1,60.9,76.6,60.9z"/>
	<path d="M94.2,100.3c1-1.9,8.7-17,8.7-51.8C103,12.7,90.2,0,79.4,0C71,0,66.6,8.4,64.9,12.5l-1.7-3.1c-1.5-2.8-4.3-4.5-7.5-4.5
		h-8.5c-3.1,0-6,1.7-7.5,4.5l-1.7,3.1C36.4,8.4,32,0,23.6,0C12.7,0,0,12.7,0,48.4c0,34.7,7.7,49.9,8.7,51.8c0.1,2.7,0.4,5,0.5,5.7
		c-1.9,5.8-2.2,9.8-1,11.9c1.7,2.9,6.1,3.4,9,3.4c0.8,0,1.5,0,2-0.1l1.5,2.5c0.8,1.4,2.4,2.3,4,2.3h53.6c1.6,0,3.2-0.9,4-2.3
		l1.4-2.4c0.5,0,1.2,0.1,2,0.1c2.9,0,7.2-0.5,8.9-3.4c1.2-2.1,0.9-6.1-1-11.9C93.8,105.3,94.1,103,94.2,100.3z M85.9,95.7v-7.6
		c0.4,0,0.9,0.1,1.4,0.2c1.3,0.4,2.5,1.3,3.4,2.6c0.4,0.5,0.7,1.2,0.9,2.1c0.4,1.7,0.6,4,0.6,6.8c0,0.6,0,1.2-0.1,1.7
		C91.2,99.3,89.2,97.4,85.9,95.7z M24.2,14h-2.5c0.4-0.9,0.9-1.8,1.3-2.6C23.5,12.3,23.9,13.3,24.2,14z M45.1,12.4
		c0.6-1.1,1.6-1.7,2.8-1.7H55c1.2,0,2.3,0.7,2.8,1.7l0.8,1.6H44.2L45.1,12.4z M68.8,16v37.2c-3,0.6-6.4,1-10,1v-5.9c0-0.6-0.4-1-1-1
		H45.2c-0.6,0-1,0.4-1,1v5.9c-3.6-0.1-7-0.4-10-1V16H68.8z M86.5,46.1c1.7-1.8,2.6-4.2,2.6-6.8v-2.8c0.9,4.3,1.4,8.5,1.5,12.5
		c0.1,2.5,0,5.1,0,7.6c-1.4-1-3-1.7-4.7-2.2v-7.8C86.1,46.5,86.3,46.3,86.5,46.1z M85.9,56.5c1.7,0.5,3.3,1.4,4.6,2.6L90.4,60
		c-0.7,6.8-1.4,13.3-4.5,18.3V56.5z M85.9,81.6c1.1-1.3,2.1-2.8,2.8-4.3c-0.7,4.4-1.4,7.5-1.8,8.9c-0.4-0.1-0.7-0.1-1-0.1L85.9,81.6
		L85.9,81.6z M79.9,11.4c0.4,0.8,0.9,1.7,1.3,2.6h-2.5C79,13.3,79.4,12.3,79.9,11.4z M66.3,66.6h2.5v2.9c-0.8-0.5-1.7-0.8-2.6-0.8
		H36.8c-1,0-1.9,0.3-2.6,0.8v-2.9h2.5c0.6,0,1-0.4,1-1v-7.4c0-0.6-0.4-1-1-1h-2.5v-1.9c3.1,0.6,6.4,0.9,10,1v5.9c0,0.6,0.4,1,1,1
		h12.5c0.6,0,1-0.4,1-1v-5.9c3.6-0.1,7-0.4,10-1v1.9h-2.5c-0.6,0-1,0.4-1,1v7.4C65.3,66.2,65.8,66.6,66.3,66.6z M34.2,73.3
		c0-1.5,1.2-2.6,2.6-2.6h29.3c1.5,0,2.6,1.2,2.6,2.6v16.2c-1.3,1.2-7.3,5.8-17.3,5.8c-10,0-16-4.6-17.3-5.8L34.2,73.3L34.2,73.3z
		 M56.8,61.1H46.2V49.3h10.5V61.1z M17.1,78.2c-3.1-5-3.8-11.5-4.5-18.3l-0.1-0.8c1.3-1.2,2.9-2.1,4.6-2.6V78.2z M16.1,86.2
		c-0.4-1.4-1.1-4.5-1.8-8.9c0.7,1.5,1.7,3,2.8,4.3v4.5C16.8,86.2,16.4,86.2,16.1,86.2z M12.4,56.6c-0.1-2.5-0.1-5.1,0-7.6
		c0.1-4,0.6-8.2,1.5-12.5v2.8c0,2.5,0.9,5,2.6,6.8c0.2,0.2,0.4,0.4,0.6,0.6v7.8C15.4,54.9,13.8,55.6,12.4,56.6z M10.8,101.6
		c0-0.5-0.1-1.1-0.1-1.7c-0.1-2.8,0.1-5.1,0.6-6.8c0.2-0.9,0.5-1.6,0.9-2.1c1-1.3,2.1-2.2,3.4-2.6c0.6-0.2,1-0.2,1.4-0.2v7.6
		C13.7,97.4,11.7,99.3,10.8,101.6z M18.8,45.6c-0.3-0.2-0.5-0.5-0.8-0.8c-1.3-1.5-2.1-3.4-2.1-5.4V20.5c0-1,0.5-2,1.4-2.6l3.1-2h5
		v34.3C22.9,49,20.6,47.4,18.8,45.6z M35.7,59.2v5.4H23.9v-5.4H35.7z M35.7,97.9v5.4H23.9v-5.4H35.7z M34.2,105.3h2.5
		c0.6,0,1-0.4,1-1v-7.4c0-0.6-0.4-1-1-1h-2.5v-3.8c2.7,1.9,8.5,5.2,17.3,5.2c8.8,0,14.6-3.3,17.3-5.2v3.8h-2.5c-0.6,0-1,0.4-1,1v7.4
		c0,0.6,0.4,1,1,1h2.5V124H34.2V105.3z M67.3,103.3v-5.4H79v5.4H67.3z M67.3,64.6v-5.4H79v5.4H67.3z M77.6,16h5l3.1,2
		c0.9,0.5,1.4,1.5,1.4,2.6v18.8c0,2-0.7,4-2.1,5.4c-0.3,0.3-0.5,0.6-0.8,0.8c-1.9,1.9-4.1,3.4-6.6,4.7C77.6,50.3,77.6,16,77.6,16z
		 M79.4,2c10,0,21.6,12.2,21.6,46.4c0,25.7-4.4,40.7-6.9,47.2c-0.1-1-0.2-1.9-0.4-2.7c0.7-2.5,6.5-24.6,5.3-46.1
		C97.8,24.8,90.9,5.4,84.2,5.4c-1.8,0-3.5,1.1-5,3.3c0,0,0,0,0,0c0,0,0,0,0,0c-1.3,1.9-2.2,4.1-2.6,5.2H66.5
		C67.7,10.7,71.8,2,79.4,2z M23.6,2c7.6,0,11.6,8.7,12.9,12H26.4c-0.4-1.1-1.3-3.3-2.6-5.2c0,0,0,0,0,0c0,0,0,0,0,0
		c-1.5-2.2-3.2-3.3-5-3.3C12.1,5.4,5.2,24.8,4,46.9c-1.2,21.4,4.6,43.5,5.3,46c-0.2,0.8-0.3,1.7-0.4,2.7C6.4,89.1,2,74.2,2,48.4
		C2,14.2,13.6,2,23.6,2z M9.9,116.9c-0.9-1.5-0.4-5.4,1.2-10.5c0.7-2.2,1.4-3.9,1.5-4c0.7-1.7,2.1-3.1,4.4-4.4v17c0,1.5,0.4,3,1,4.3
		C15.2,119.4,11.2,119,9.9,116.9z M22.4,122.7l-1.8-3c0,0,0-0.1-0.1-0.1l-0.4-0.6c-0.7-1.2-1.1-2.6-1.1-4V48.5c1.9,1.5,4,2.9,6.3,4
		v4.7h-2.5c-0.6,0-1,0.4-1,1v7.4c0,0.6,0.4,1,1,1h2.5v29.2h-2.5c-0.6,0-1,0.4-1,1v7.4c0,0.6,0.4,1,1,1h2.5V124h-0.7
		C23.7,124,22.9,123.5,22.4,122.7z M80.6,122.7c-0.5,0.8-1.4,1.3-2.3,1.3h-0.7v-18.7H80c0.6,0,1-0.4,1-1v-7.4c0-0.6-0.4-1-1-1h-2.5
		V66.6H80c0.6,0,1-0.4,1-1v-7.4c0-0.6-0.4-1-1-1h-2.5v-4.7c2.3-1.1,4.5-2.4,6.3-4V115c0,1.4-0.4,2.8-1.1,4l-0.4,0.7c0,0,0,0,0,0
		L80.6,122.7z M93,116.9c-1.3,2.2-5.5,2.5-8.2,2.4c0.7-1.4,1-2.9,1-4.4V98c2.4,1.3,3.8,2.8,4.4,4.5c0,0,0.7,1.7,1.5,3.9
		c0,0,0,0.1,0,0.1c0,0,0,0,0,0C93.5,111.6,93.9,115.4,93,116.9z"/>
</g>
</svg>
