<?xml version="1.0" encoding="utf-8"?>
<!-- Generator: Adobe Illustrator 25.4.1, SVG Export Plug-In . SVG Version: 6.00 Build 0)  -->
<svg version="1.1" id="Layer_1" xmlns="http://www.w3.org/2000/svg" xmlns:xlink="http://www.w3.org/1999/xlink" x="0px" y="0px"
	 viewBox="0 0 103 157.5" style="enable-background:new 0 0 103 157.5;" xml:space="preserve">
<g>
	<path d="M48.8,74.4h5.7c0.6,0,1-0.4,1-1v-7c0-0.6-0.4-1-1-1h-5.7c-0.6,0-1,0.4-1,1v7C47.8,74,48.3,74.4,48.8,74.4z"/>
	<path d="M26.6,116.3h6.8c0.6,0,1-0.4,1-1s-0.4-1-1-1h-6.8c-0.6,0-1,0.4-1,1S26,116.3,26.6,116.3z"/>
	<path d="M26.6,77.6h6.8c0.6,0,1-0.4,1-1s-0.4-1-1-1h-6.8c-0.6,0-1,0.4-1,1S26,77.6,26.6,77.6z"/>
	<path d="M76.8,114.3H70c-0.6,0-1,0.4-1,1s0.4,1,1,1h6.8c0.6,0,1-0.4,1-1S77.3,114.3,76.8,114.3z"/>
	<path d="M76.8,75.6H70c-0.6,0-1,0.4-1,1s0.4,1,1,1h6.8c0.6,0,1-0.4,1-1S77.3,75.6,76.8,75.6z"/>
	<path d="M94.4,115c1-1.9,8.7-17,8.7-51.8c0.1-35.8-12.7-48.5-23.5-48.5c-8.4,0-12.8,8.4-14.5,12.5l-1.7-3.1
		c-1.5-2.8-4.3-4.5-7.5-4.5h-8.5c-3.1,0-6,1.7-7.5,4.5l-1.7,3.1c-1.6-4.1-6-12.5-14.4-12.5c-10.9,0-23.6,12.7-23.6,48.4
		c0,34.7,7.7,49.9,8.7,51.8c0.1,2.7,0.4,5,0.5,5.7c-1.9,5.8-2.2,9.8-1,11.9c1.7,2.9,6.1,3.4,9,3.4c0.8,0,1.5,0,2-0.1l1.5,2.5
		c0.8,1.4,2.4,2.3,4,2.3h53.6c1.6,0,3.2-0.9,4-2.3l1.4-2.4c0.5,0,1.2,0.1,2,0.1c2.9,0,7.2-0.5,8.9-3.4c1.2-2.1,0.9-6.1-1-11.9
		C94,120,94.3,117.7,94.4,115z M86.1,110.4v-7.6c0.4,0,0.9,0.1,1.4,0.2c1.3,0.4,2.5,1.3,3.4,2.6c0.4,0.5,0.7,1.2,0.9,2.1
		c0.4,1.7,0.6,4,0.6,6.8c0,0.6,0,1.2-0.1,1.7C91.4,114,89.4,112.1,86.1,110.4z M24.4,28.7h-2.5c0.4-0.9,0.9-1.8,1.3-2.6
		C23.7,27,24.1,28,24.4,28.7z M45.3,27.1c0.6-1.1,1.6-1.7,2.8-1.7h7.1c1.2,0,2.3,0.7,2.8,1.7l0.8,1.6H44.4L45.3,27.1z M69,30.7v37.2
		c-3,0.6-6.4,1-10,1V63c0-0.6-0.4-1-1-1H45.4c-0.6,0-1,0.4-1,1v5.9c-3.6-0.1-7-0.4-10-1V30.7H69z M86.7,60.8
		c1.7-1.8,2.6-4.2,2.6-6.8v-2.8c0.9,4.3,1.4,8.5,1.5,12.5c0.1,2.5,0,5.1,0,7.6c-1.4-1-3-1.7-4.7-2.2v-7.8
		C86.3,61.2,86.5,61,86.7,60.8z M86.1,71.2c1.7,0.5,3.3,1.4,4.6,2.6l-0.1,0.9C89.9,81.5,89.2,88,86.1,93V71.2z M86.1,96.3
		c1.1-1.3,2.1-2.8,2.8-4.3c-0.7,4.4-1.4,7.5-1.8,8.9c-0.4-0.1-0.7-0.1-1-0.1V96.3L86.1,96.3z M80.1,26.1c0.4,0.8,0.9,1.7,1.3,2.6
		h-2.5C79.2,28,79.6,27,80.1,26.1z M66.5,81.3H69v2.9c-0.8-0.5-1.7-0.8-2.6-0.8H37c-1,0-1.9,0.3-2.6,0.8v-2.9h2.5c0.6,0,1-0.4,1-1
		v-7.4c0-0.6-0.4-1-1-1h-2.5V70c3.1,0.6,6.4,0.9,10,1v5.9c0,0.6,0.4,1,1,1h12.5c0.6,0,1-0.4,1-1V71c3.6-0.1,7-0.4,10-1v1.9h-2.5
		c-0.6,0-1,0.4-1,1v7.4C65.5,80.9,66,81.3,66.5,81.3z M34.4,88c0-1.5,1.2-2.6,2.6-2.6h29.3c1.5,0,2.6,1.2,2.6,2.6v16.2
		c-1.3,1.2-7.3,5.8-17.3,5.8s-16-4.6-17.3-5.8L34.4,88L34.4,88z M57,75.8H46.4V64h10.5L57,75.8L57,75.8z M17.3,92.9
		c-3.1-5-3.8-11.5-4.5-18.3l-0.1-0.8c1.3-1.2,2.9-2.1,4.6-2.6V92.9z M16.3,100.9c-0.4-1.4-1.1-4.5-1.8-8.9c0.7,1.5,1.7,3,2.8,4.3
		v4.5C17,100.9,16.6,100.9,16.3,100.9z M12.6,71.3c-0.1-2.5-0.1-5.1,0-7.6c0.1-4,0.6-8.2,1.5-12.5V54c0,2.5,0.9,5,2.6,6.8
		c0.2,0.2,0.4,0.4,0.6,0.6v7.8C15.6,69.6,14,70.3,12.6,71.3z M11,116.3c0-0.5-0.1-1.1-0.1-1.7c-0.1-2.8,0.1-5.1,0.6-6.8
		c0.2-0.9,0.5-1.6,0.9-2.1c1-1.3,2.1-2.2,3.4-2.6c0.6-0.2,1-0.2,1.4-0.2v7.6C13.9,112.1,11.9,114,11,116.3z M19,60.3
		c-0.3-0.2-0.5-0.5-0.8-0.8c-1.3-1.5-2.1-3.4-2.1-5.4V35.2c0-1,0.5-2,1.4-2.6l3.1-2h5v34.3C23.1,63.7,20.8,62.1,19,60.3z M35.9,73.9
		v5.4H24.1v-5.4C24.1,73.9,35.9,73.9,35.9,73.9z M35.9,112.6v5.4H24.1v-5.4H35.9z M34.4,120h2.5c0.6,0,1-0.4,1-1v-7.4
		c0-0.6-0.4-1-1-1h-2.5v-3.8c2.7,1.9,8.5,5.2,17.3,5.2s14.6-3.3,17.3-5.2v3.8h-2.5c-0.6,0-1,0.4-1,1v7.4c0,0.6,0.4,1,1,1H69v18.7
		H34.4V120z M67.5,118v-5.4h11.7v5.4H67.5z M67.5,79.3v-5.4h11.7v5.4H67.5z M77.8,30.7h5l3.1,2c0.9,0.5,1.4,1.5,1.4,2.6v18.8
		c0,2-0.7,4-2.1,5.4c-0.3,0.3-0.5,0.6-0.8,0.8c-1.9,1.9-4.1,3.4-6.6,4.7C77.8,65,77.8,30.7,77.8,30.7z M79.6,16.7
		c10,0,21.6,12.2,21.6,46.4c0,25.7-4.4,40.7-6.9,47.2c-0.1-1-0.2-1.9-0.4-2.7c0.7-2.5,6.5-24.6,5.3-46.1c-1.2-22-8.1-41.4-14.8-41.4
		c-1.8,0-3.5,1.1-5,3.3l0,0l0,0c-1.3,1.9-2.2,4.1-2.6,5.2H66.7C67.9,25.4,72,16.7,79.6,16.7z M23.8,16.7c7.6,0,11.6,8.7,12.9,12
		H26.6c-0.4-1.1-1.3-3.3-2.6-5.2l0,0l0,0c-1.5-2.2-3.2-3.3-5-3.3C12.3,20.1,5.4,39.5,4.2,61.6C3,83,8.8,105.1,9.5,107.6
		c-0.2,0.8-0.3,1.7-0.4,2.7c-2.5-6.5-6.9-21.4-6.9-47.2C2.2,28.9,13.8,16.7,23.8,16.7z M10.1,131.6c-0.9-1.5-0.4-5.4,1.2-10.5
		c0.7-2.2,1.4-3.9,1.5-4c0.7-1.7,2.1-3.1,4.4-4.4v17c0,1.5,0.4,3,1,4.3C15.4,134.1,11.4,133.7,10.1,131.6z M22.6,137.4l-1.8-3
		c0,0,0-0.1-0.1-0.1l-0.4-0.6c-0.7-1.2-1.1-2.6-1.1-4V63.2c1.9,1.5,4,2.9,6.3,4v4.7H23c-0.6,0-1,0.4-1,1v7.4c0,0.6,0.4,1,1,1h2.5
		v29.2H23c-0.6,0-1,0.4-1,1v7.4c0,0.6,0.4,1,1,1h2.5v18.8h-0.7C23.9,138.7,23.1,138.2,22.6,137.4z M80.8,137.4
		c-0.5,0.8-1.4,1.3-2.3,1.3h-0.7V120h2.4c0.6,0,1-0.4,1-1v-7.4c0-0.6-0.4-1-1-1h-2.5V81.3h2.5c0.6,0,1-0.4,1-1v-7.4c0-0.6-0.4-1-1-1
		h-2.5v-4.7c2.3-1.1,4.5-2.4,6.3-4v66.5c0,1.4-0.4,2.8-1.1,4l-0.4,0.7l0,0L80.8,137.4z M93.2,131.6c-1.3,2.2-5.5,2.5-8.2,2.4
		c0.7-1.4,1-2.9,1-4.4v-16.9c2.4,1.3,3.8,2.8,4.4,4.5c0,0,0.7,1.7,1.5,3.9v0.1l0,0C93.7,126.3,94.1,130.1,93.2,131.6z"/>
</g>
</svg>
