<?xml version="1.0" encoding="utf-8"?>
<!-- Generator: Adobe Illustrator 25.4.1, SVG Export Plug-In . SVG Version: 6.00 Build 0)  -->
<svg version="1.1" id="Layer_1" xmlns="http://www.w3.org/2000/svg" xmlns:xlink="http://www.w3.org/1999/xlink" x="0px" y="0px"
	 viewBox="0 0 100 125" style="enable-background:new 0 0 100 125;" xml:space="preserve">
<path d="M97.5,50.2c-4.1-14.1-14.4-25.6-27.6-31.4c-6-2.7-12.8-4.2-19.9-4.2c-27.3,0-49.4,22.2-49.4,49.4s22.2,49.4,49.4,49.4
	s49.4-22.2,49.4-49.4C99.4,59.3,98.7,54.7,97.5,50.2z M76.4,92.9c0-0.2,0.2-0.3,0.4-0.4c0.6-0.5,1-1.2,1-2.1c0-0.4-0.1-0.8,0.2-1.1
	c0.2-0.4,0.8-0.5,0.9-0.9c0.1-0.1,0.1-0.3,0.1-0.4c0.2-0.2,0.5-0.1,0.7-0.2c0.8-0.1,0.8-1.4,1.5-1.9c0.2-0.2,0.4-0.2,0.6-0.4
	c0.2-0.1,0.2-0.3,0.3-0.5c0.3,0.6,0.2,1.5-0.1,2.1c-0.1,0.2-0.3,0.5-0.3,0.8c0,0.1,0.1,0.2,0.1,0.3c0,0.3-0.4,0.4-0.6,0.6
	c-0.2,0.2-0.2,0.5-0.3,0.8c-0.3,2.1-1.9,3.6-3.2,5.2c-0.2,0.2-0.3,0.3-0.5,0.4c-0.4,0.1-0.8-0.3-0.7-0.7c0-0.2,0.2-0.4,0.2-0.6
	C76.6,93.4,76.3,93.1,76.4,92.9z M96.2,51.9c-0.1,0.3-0.2,0.6-0.2,0.9c0,0.3,0,0.5,0,0.8c0.1,0.8,0.2,1.6,0.3,2.4
	c0,0.3,0.1,0.6,0.2,0.8c0.1,0.1,0.2,0.3,0.2,0.4c0,0.2,0,0.3,0,0.5c0,1.6,0,3,0,4.6c-0.1,0.1-0.3,0-0.2-0.1c0.1-0.6-0.6-1-0.9-1.6
	c-0.2-0.3-0.2-0.7-0.2-1.1c-0.1-0.5-0.2-0.9-0.4-1.5c-0.7-2.2-1.5-4.3-2.2-6.5c-0.1-0.2-0.1-0.4-0.3-0.5c0.1,0.4,0.1,0.8,0,1.1
	c-0.5,0.1-1.1-0.1-1.6-0.5c-0.1-0.1-0.2-0.3-0.2-0.4c0.1-0.1,0.2-0.2,0.4-0.2c0.1-0.1,0.3-0.2,0.2-0.4c-0.3,0.1-0.7,0.1-1-0.1
	c-0.6-0.3-1-1-1.8-1c-0.2,0-0.4,0.1-0.5,0.2c-0.7,0.4-1.5,0.6-2.3,0.7c-0.2,0-0.5,0.1-0.7,0c-0.2-0.1-0.4-0.4-0.5-0.6
	c-0.1-0.2-0.4-0.4-0.7-0.3c-0.4,0.2-0.5,0.9-0.9,0.9c-0.1,0-0.2-0.1-0.3-0.2c-0.2-0.1-0.4,0-0.6,0c-0.5,0.1-1-0.4-1.5-0.8
	c-0.4-0.5-0.9-1-1.4-1.6c-0.2,0.4-1,0.3-1,0.8c0,0.1,0.1,0.2,0.2,0.3c0.9,1.1,1.9,2.2,2.9,3.3c0.1,0.2,0.3,0.3,0.5,0.4
	c0.2,0,0.3,0,0.5,0c0.9-0.3,1.4-1.5,1.6-2.5c0.4,0.4,0.6,1,0.5,1.7c0.5,0,1.1,0.4,1.4,0.8c0.3-0.2,0.7,0,0.9,0.3
	c0.2,0.3,0.2,0.7,0.2,1c0,0.6,0,1.4-0.4,1.9c-0.2,0.3-0.4,0.5-0.5,0.8c-0.1,0.2,0,0.5-0.1,0.7c-0.2,0.7-1.2,0.8-1.7,1.5
	c-0.1,0.2-0.1,0.3-0.2,0.5c-0.1,0.3-0.3,0.5-0.5,0.7c-1.2,1.1-2.4,2.3-3.7,3.3c-0.3,0.2-0.7,0.5-1,0.4c-0.4-0.1-0.5-0.6-0.5-1
	c0-0.4,0-0.9-0.3-1.2c-0.4-0.4-1.2-0.5-1.2-1c0-0.4,0.5-0.7,0.4-1.1c-0.1-0.2-0.2-0.3-0.4-0.4c-0.9-0.6-1.8-1.4-2.5-2.2
	c-0.4-0.5-0.8-1-1.2-1.6s-0.7-1-1-1.7c-0.2-0.4-0.4-0.8-0.7-1.2c-0.5-0.6-1.2-1.1-1.6-1.9c0.1,0.3,0.1,0.6,0,0.9
	c-0.5-0.1-1-0.4-1.2-0.9c-0.1,0.3,0.1,0.7,0.3,0.9c0.2,0.2,0.6,0.4,0.8,0.7c0.3,0.3,0.3,0.8,0.6,1.2c0.3,0.4,0.8,0.5,0.9,1
	c0.1,0.2,0,0.4,0.1,0.6c0.1,0.9,1.2,1.6,1.7,2.4c0.1,0.2,0.2,0.4,0.1,0.6c0,0.2-0.2,0.4-0.3,0.5c-0.1,0.2-0.1,0.5,0,0.5
	c0.1-0.1,0.2-0.2,0.2-0.4c0.9,0.6,1.8,1.5,2.1,2.6c0.1,0.2,0.2,0.5,0.3,0.7c0.2,0.3,0.6,0.4,1,0.5c1,0.4,1.8,1.4,2.1,2.4
	c0.1,0.2,0.1,0.5,0.3,0.6c0.2,0.1,0.4,0,0.6,0c1.5-0.5,2.8-1.4,4-2.4c0.4,0.2,0.6,0.7,0.5,1.1c0,0.4-0.2,0.9-0.3,1.4
	c-0.1,0.7,0,1.5-0.1,2.2c-0.1,1.2-0.8,2.3-1.6,3.2c-1.2,1.8-2.5,3.5-3.7,5.2c-0.2,0.3-0.4,0.5-0.6,0.8c-0.7,1-1.5,2.1-1.9,3.3
	c-0.1,0.2-0.1,0.4-0.1,0.6s0.2,0.4,0.2,0.6c0.1,0.4,0,0.9,0,1.5c0,0.5,0.3,1,0.8,0.9c-0.4,1.4,0.1,3-0.6,4.3
	c-0.3,0.5-0.7,0.8-1.1,1.2c-1.1,0.9-2.4,2-3.5,2.9c0.7,0.9,0.3,2.5-0.7,3c-0.4,0.2-1,0.2-1.4,0.6c-0.3,0.2-0.4,0.6-0.5,0.9
	c-0.8,2.1-2.9,3.3-5,4.2c-2.2,0.9-4.6,1.4-7,1.5c0.6-2.2-2.2-4-2.2-6.2c0-0.4,0.1-0.8-0.1-1.2c-0.1-0.3-0.4-0.5-0.6-0.8
	c-0.8-0.8-1.4-1.9-1.5-2.9c-0.1-1.1,0.3-2.3,1.1-3c0.2-0.1,0.3-0.2,0.4-0.4c0.2-0.3,0.1-0.8,0-1.2c-0.1-0.6-0.3-1.1-0.4-1.8
	c-0.2-0.7-0.4-1.5-0.4-2.3c-1.1-1.1-2.2-2.3-3-3.6c-0.1-0.1-0.2-0.3-0.2-0.4c-0.1-0.3,0.1-0.7,0.2-1c0.4-1,0.6-2.1,0.4-3.2
	c-0.1,0.2-0.5,0.1-0.6-0.1s-0.2-0.5-0.5-0.5c-0.1,0-0.2,0-0.3,0c-0.7,0.1-1.5,0.2-2.1,0.4c-0.1-1.2-1.5-2.3-2.6-2
	c-0.4,0.1-0.8,0.3-1.4,0.2c-0.2-0.1-0.4-0.2-0.6-0.2c-0.3,0-0.5,0.4-0.7,0.7c-0.3,0.4-0.9,0.4-1.5,0.4c-0.5-0.1-1-0.3-1.5-0.4
	c-1.1-0.3-2.4-0.1-3.4,0.5c-0.2,0.1-0.3,0.2-0.5,0.2c-0.1,0-0.2-0.1-0.3-0.1c-0.9-0.7-1.4-2.1-2.4-2.6c-0.2-0.1-0.5-0.2-0.7-0.4
	c-0.1-0.1-0.2-0.3-0.3-0.4c-0.2-0.5-0.5-1-0.7-1.6c-0.4-1-0.8-2.3-2-2.6c-0.1,0-0.2-0.1-0.3-0.1c-0.1-0.1-0.1-0.3,0-0.4
	c0.1-0.4,0.1-0.8,0-1.1c-0.1-0.3-0.5-0.6-0.9-0.6c1.2-0.8,2-2.4,1.7-4c-0.1-0.3,0-0.9,0.3-0.8c-0.4-0.3-0.6-0.9-0.5-1.5
	c0.1-0.4,0.4-0.7,0.6-1.1c0.8-1,1.7-2.1,2.4-3.1c0.4-0.5,0.8-1,1.6-1.2c0.6-0.2,1.5-0.4,1.6-0.9c0.2-0.1,0.4-0.3,0.5-0.5
	c0.1-0.3-0.1-0.5-0.1-0.8c-0.1-0.9,0.9-1.5,1.8-1.8c0.8-0.3,1.9-0.9,1.7-1.9c0.4-0.4,1,0.2,1.5,0.4c0.6,0.4,1.5,0.3,2.1,0
	c0.7-0.3,1.4-0.7,2-0.9c0.6-0.2,1.4-0.2,2.1-0.2c1.7,0,3.3-0.1,4.9-0.1c-0.5,0.3,0.4,1,0.2,1.5c-0.2,0.4-0.9,0.5-0.8,0.9
	c0,0.1,0.2,0.2,0.3,0.3c1.1,0.6,2.5,0.9,3.7,1c0,0.4,0.1,0.8,0.3,1c0.6-0.2,1.2,0.2,1.8,0.4c0.5,0.2,1.5,0.2,1.6-0.4
	c0-0.2-0.1-0.5-0.1-0.7c0-0.6,0.8-1,1.5-0.9c0.6,0.1,1.2,0.5,1.9,0.7c0.1,0,0.2,0,0.3,0.1c0.1,0.1,0.2,0.3,0.3,0.4
	c0.7-0.6,2,0.3,2.9,0c0.5-0.2,0.9-0.8,1.6-0.8c0.4,0,0.7,0.3,1.1,0.3c0.2,0,0.4,0,0.6-0.1c0.5-0.3,0.6-1,0.6-1.8c0-1,0-2,0-3
	c-0.5,0-1,0.1-1.6,0.1c0,0.4-0.6,0.5-1,0.2c-0.4-0.2-0.9-0.5-1.2-0.2c0,0.5-0.7,0.8-1.1,0.5c-0.4-0.3-0.7-0.7-1-1.1
	c-0.3-0.5-0.8-1-1.2-1.5c0.5-0.1,0.9-0.4,1.2-0.8c0.1-0.1,0.2-0.3,0.3-0.4c0.2-0.1,0.3,0,0.5,0c0.9,0,1.6-1,2.5-1.1
	c0.7,0,1.2,0.5,1.9,0.7c1.1,0.4,2.5-0.3,2.8-1.5c-1.4-0.6-2.6-1.2-4-1.9c-0.1,0-0.2-0.1-0.2-0.1c-0.2-0.2,0-0.6,0.2-0.8
	s0.4-0.6,0.1-0.8c-0.9,0.4-1.8,0.8-2.7,1.2c-0.2,0.1-0.3,0.1-0.5,0.1c-0.2-0.1-0.4-0.4-0.6-0.4c-0.3-0.1-0.5,0.3-0.6,0.6
	c-0.1,0.3-0.4,0.7-0.7,0.5c0.5,0.7,0.4,1.8-0.2,2.4c0.3,0.3,0.6,0.6,0.9,0.9c-0.1,0-0.3,0-0.4,0.1c0.1,0.2-0.1,0.5-0.4,0.5
	c-0.1,0-0.2-0.1-0.4-0.1c-0.7-0.3-1.5-0.2-2.1,0.2c-0.2,0.5,0.1,1.1,0.6,1.4c-0.1,0.1-0.2,0.2-0.4,0.3c0.4,0.4,0.5,1,0.2,1.6
	c-0.6-0.5-1-1.6-1.8-2c-0.5-0.2-1-0.5-1.1-1c0-0.2,0-0.4,0-0.5c-0.1-0.6-0.8-0.9-1.5-1.1c0.1,0,0.3,0.1,0.4,0.1c-1-0.3-2-1-2.6-1.9
	c-0.1-0.1-0.2-0.3-0.4-0.4c-0.4-0.2-0.8-0.1-1.2,0.1c-0.3,0.7,0.9,1.2,0.9,2c1.1,0.7,2.4,1.4,3.5,2.1c0,0.2-0.2,0.3-0.4,0.3
	c0-0.4-0.6-0.5-0.8-0.2c0.5,0.5,0.2,1.7-0.5,1.9c-0.2,0.1-0.4,0-0.3-0.2c0.5-0.3,0.5-1,0.1-1.5c-0.3-0.4-0.8-0.7-1.4-0.9
	c-0.8-0.4-1.7-1-2.3-1.8c-0.5-0.5-1.1-1.1-1.8-0.8c-0.2,0.6-1,1-1.7,0.7c-0.3-0.1-0.5-0.4-0.9-0.4c-0.5,0-0.7,0.8-0.3,1
	c-1.1,0.6-2.2,1.4-3,2.2c0.2,0.2,0.3,0.3,0.5,0.5c0.1,0.5-0.4,0.8-0.8,1c-0.1,0.1-0.2,0.1-0.4,0.2c-0.5,0.2-0.9,0.5-1.6,0.5
	c-0.4,0-0.8-0.2-1.1,0c-0.2,0.1-0.4,0.4-0.6,0.3s-0.2-0.3-0.3-0.5c-0.3-0.6-1.5,0-1.9-0.5c0.2-0.2,0.4-0.5,0.3-0.9
	c-0.2-0.1-0.3-0.1-0.5-0.2c0.8-1.1,1.4-2.6,1.2-4.1c1.5,0.1,2.9,0.2,4.4,0.3c0.1,0,0.2,0,0.3,0c0.2-0.1,0-0.5,0.1-0.7
	c0.1-0.2,0.3-0.3,0.4-0.5c0.1-0.1,0-0.3-0.1-0.4c-0.3-0.6-0.8-1.2-1.5-1.6c0-0.2,0.1-0.3,0.1-0.5c0.3,0,0.7,0,1,0.1
	c-0.2-0.2,0-0.6,0.2-0.7c0.3-0.1,0.6,0.1,0.8,0.2c0.4-0.5,0.8-0.8,1.5-1c0.5-0.6,1.2-1,2.1-1.2c0.2-0.1,0.4-0.1,0.5-0.3
	c0-0.1,0-0.3,0-0.4c0.1-0.5,1.1,0,1.6-0.5c0-0.6,0-1.1,0-1.8c0.3,0,0.7,0.1,1,0.3c-0.5,0.3-0.5,1.1,0,1.5c0.5,0.3,1.1-0.5,1.7-0.2
	c0.1,0.1,0.2,0.2,0.4,0.2c0.2,0,0.3-0.1,0.5-0.3c0.5-0.4,1.4-0.6,2-0.3c0.2-0.2,0.5-0.3,0.7-0.3c-0.1-0.6-0.1-1.2,0-1.9
	c0.3,0,0.6,0.2,0.8,0.5c0.3-0.2,0.5-0.6,0.5-0.9c-0.3,0-0.7-0.1-0.9-0.3c0.3-0.2,0.7-0.2,1.1-0.2s0.8,0,1.1-0.2
	c0.3-0.2,0.4-0.8,0.1-1c-0.7-0.1-1.6,0.1-2.1,0.5c-0.3,0.2-0.8,0.5-1,0.2c-0.1-0.1-0.1-0.3-0.2-0.5c-0.2-0.3-0.7-0.4-0.7-0.7
	s0.3-0.4,0.6-0.6c0.3-0.2,0.6-0.5,0.6-0.9c0-0.4-0.5-0.7-0.8-0.5c-0.3,0.2-0.3,0.6-0.4,1c-0.1,0.3-0.5,0.5-0.7,0.7
	c-0.2,0.2-0.5,0.6-0.3,0.9c0.4,0,0.7,0.4,0.6,0.8s-0.4,0.7-0.8,0.7c0.1,0.2,0.3,0.5,0.4,0.7c-0.2,0.3-0.3,0.7-0.5,1
	c-0.2,0.3-0.5,0.6-0.9,0.6c-0.4-0.1-0.7-0.6-0.8-1c-0.2-0.5-0.4-1.1-0.5-1.7c-0.7,0.6-1.7,1.4-2.5,0.9c-0.6-0.3-0.8-1.1-0.6-1.8
	c0.2-0.6,0.9-1,1.6-1.2c0.3-0.1,0.5-0.1,0.8-0.2c0.2-0.1,0.4-0.4,0.5-0.6c0.6-1,1-2.3,2.1-2.9c1-0.6,2.4-0.4,3.6-0.2
	c0.8,0.2,1.8,0.3,2.6,0.5c0.3,0.1,0.6,0.1,0.9,0.3c0.2,0.2,0.4,0.6,0.2,0.8c-0.5-0.1-1,0-1.6,0.1c0.4,0.3,0.9,0.6,1.4,0.8
	c-0.1-0.1,0-0.2,0.1-0.3c0.1,0,0.2,0,0.4-0.1c0.6-0.2,0-1.6,0.6-1.8c-0.3-0.1-0.5-0.3-0.5-0.6c0.3,0,0.7,0.1,1,0.3
	c-0.1,0.2-0.1,0.4-0.2,0.6c0.2,0.2,0.6-0.1,0.7-0.4c0.1-0.3,0.3-0.6,0.4-0.8c0.3,0,0.7,0,1-0.2c-0.1-0.2-0.2-0.4-0.2-0.6
	c0.2,0,0.4-0.1,0.6-0.1c-0.3-0.5-0.6-1-0.7-1.6c0.2,0.2,0.6,0.3,0.9,0.2c-0.1-0.4-0.4-0.6-0.7-0.8c0.1,0,0.1,0,0.2,0
	C79.5,22.8,92,35.7,96.2,51.9z M45.8,16.5c0.1,0,0.1,0,0.2,0.1c0.3,0.2,0.5,0.6,0.8,0.6c-0.3,0.1-0.7,0.2-1,0.3
	c-0.1,0-0.2,0.1-0.3,0.1c-0.1,0.1-0.2,0.2-0.3,0.3c-0.8,1-2,1.8-3.2,2.2c-0.1,0-0.3,0.1-0.4,0.1c-0.1,0.1-0.2,0.2-0.3,0.3
	c-0.2,0.3-0.5,0.6-0.7,0.9c-0.1,0.1-0.2,0.2-0.3,0.3c-0.3,0.1-0.6,0-0.8,0c-0.3,0-0.6,0.2-0.9,0.3c-0.4,0.1-0.8-0.2-1.4-0.2
	c-0.7,0-1.1,0.7-1.9,0.9c-0.7,0.2-1.7-0.1-2.4,0.2c-0.4,0.2-0.6,0.7-1,0.9c-0.2,0.1-0.5,0.2-0.8,0.3c-0.6,0.3-1.1,0.9-1.9,1.1
	c-0.1-0.3,0-0.6,0.2-0.8c-0.3,0-0.6-0.1-0.8-0.3c0.7-0.3,1.5-0.7,1.7-1.5c0-0.1,0.1-0.2,0.1-0.4c0.3-0.6,1.1-0.5,1.7-0.9
	c0.4-0.3,0.6-0.9,1.1-1c0.3-0.1,0.5,0,0.8,0c0.5-0.1,0.8-0.7,1.2-1c0.2-0.1,0.4-0.1,0.5-0.2c0.2-0.1,0.4-0.3,0.6-0.5
	c0.3-0.2,0.7-0.2,1-0.3c0.2-0.1,0.4-0.3,0.5-0.4C40.5,17.1,43.1,16.7,45.8,16.5z M45,33.7c-0.1,0-0.2,0-0.3,0
	c-0.4,0-0.8,0.4-1.2,0.2c-0.1,0-0.2-0.1-0.4-0.2c-0.2-0.1-0.3-0.1-0.4,0c-0.1,0.1-0.1,0.2-0.2,0.3c-0.2,0.2-0.5-0.1-0.8,0.1
	c0.3-0.1,0.4-0.7,0.8-0.6c0.1,0,0.1,0,0.2,0.1c0.2,0,0.4-0.2,0.5-0.4c-0.2,0-0.4-0.1-0.7-0.1c-0.2,0-0.3,0-0.5,0.1
	c-0.1,0,0-0.2,0-0.2c0.1,0,0.2-0.1,0.2-0.1c0.2-0.1,0.4-0.3,0.3-0.6c-0.1-0.1-0.1-0.2-0.1-0.3c0.3,0.1,0.6,0,0.9-0.1
	c-0.1-0.2-0.1-0.4,0-0.6c-0.1,0-0.1-0.1-0.2-0.1c0-0.1,0-0.2,0-0.2c-0.3,0-0.6,0.2-0.8,0.4c0-0.3,0.2-0.7,0.5-0.8
	c-0.3-0.1-0.6-0.1-0.9,0c0.1-0.2,0.3-0.3,0.5-0.4c-0.2-0.1-0.5-0.2-0.7-0.2c0.1-0.2,0.3-0.3,0.5-0.2c0-0.2-0.2-0.3-0.3-0.4
	c-0.1-0.1-0.4,0.1-0.5,0.2c0.3-0.3,0.6-0.6,1-0.8c0,0.1,0.1,0.3,0,0.4c0.3,0.1,0.3-0.2,0.6-0.4c0.3-0.2,0.6-0.1,0.9-0.3
	c0.1-0.1,0.2-0.1,0.3,0s0,0.2-0.2,0.3c-0.3,0.2-0.5,0.3-0.8,0.5c0.4,0.1,0.8,0.1,1.1,0c-0.2,0.4-0.5,0.7-0.8,1
	c0.1,0.1,0.3,0.1,0.4,0.1c0.1,0,0.1,0.1,0.1,0.2c0.1,0.2,0.2,0.5,0.3,0.7c0.1,0,0.1,0,0.2,0c0,0.4,0.2,0.8,0.4,1.1
	c0.2-0.1,0.4-0.2,0.6,0c0.1,0.1,0.1,0.3-0.1,0.5C45.2,33,45.1,33,44.9,33C45.2,33.2,45.2,33.7,45,33.7z M40.1,31.6
	c0,0-0.1,0-0.1-0.1c-0.1,0-0.1-0.1,0-0.2c0.2-0.3,0.5,0,0.7-0.2c0.2-0.1,0.1-0.4,0.3-0.5c0.1-0.1,0.3-0.1,0.4,0
	c0.2,0.1,0.3,0.2,0.4,0.4c0,0.1,0,0.1-0.1,0.2c-0.1,0-0.1,0-0.2,0.1c-0.1,0.1,0,0.2,0,0.3c0.1,0.3,0.1,0.6-0.1,0.8
	c-0.3,0.2-0.7,0-1,0.2c-0.1,0.1-0.2,0.2-0.3,0.3c-0.2,0.1-0.5,0-0.6-0.2c-0.1-0.1,0-0.3,0.1-0.3c0.1-0.1,0.2-0.1,0.4-0.1
	c0.1,0,0.3-0.1,0.3-0.3C40.2,31.9,40.2,31.7,40.1,31.6z M25.2,23.2L25.2,23.2c-0.1,0.5-0.7,0.7-1.1,1.1c-0.3,0.3-0.4,0.9-0.8,1.1
	c-0.2,0.1-0.5,0.2-0.6,0.5c0,0.2,0.1,0.3,0,0.5c-0.1,0.2-0.6,0.3-0.5,0.5c0.2,0.1,0.3,0.4,0.2,0.6S22,28,21.8,28.1
	c-0.1,0-0.2,0.1-0.3,0.2c0,0.1,0,0.2,0,0.3c0,0.2-0.4,0.3-0.6,0.3c0.1-0.1,0.2-0.3,0-0.4c-0.4,0.1-0.9,0.3-1.2,0.5
	c0-0.1,0-0.2,0-0.3c-0.1,0.1-0.3,0-0.4-0.1c-0.1-0.1-0.2-0.3-0.3-0.4c-0.1-0.1-0.2-0.1-0.2-0.1c1.6-1.4,3.1-2.7,4.9-3.9
	C24,24.1,24.6,23.7,25.2,23.2z M17.5,29.1c0.1,0.2,0.1,0.4,0,0.5c-0.1,0.2-0.3,0.4-0.5,0.5c-0.2,0.2-0.5,0.4-0.7,0.6
	c-0.1,0.3-0.1,0.7,0.2,0.8c-0.4,0.5-0.9,0.8-1.6,0.8c0-0.4,0.3-0.8,0.7-0.9c0-0.1,0-0.1,0-0.2c-0.1,0-0.3,0-0.4,0
	C16,30.5,16.8,29.8,17.5,29.1z M2.5,58.5c0.5,0.4,0.7,1.2,0.4,2c-0.1,0.2-0.2,0.3-0.2,0.5c0,0.2,0.1,0.3,0.2,0.4
	c0.4,0.6,0,1.5,0.3,2.1c0.1,0.2,0.4,0.3,0.6,0.5c0.9,0.7,1.7,1.8,1.8,3c0.1,0.8-0.1,1.8,0.3,2.5c0.2,0.4,0.5,1,0.1,1.4
	C6,71,5.9,71,5.8,71.1c-0.1,0.1,0,0.3,0.1,0.4c0.4,0.5,1,0.8,1.7,0.8c0.3,0.5,0.8,0.7,1.4,1.1C9.4,73.9,9.5,74.7,9,75
	c1.2,0.3,2.4,1.1,3.4,2c0.5,0.4,1,0.9,1.4,1.6c1,1.7,0.8,4.1-0.5,5.5c-0.2,0.2-0.5,0.5-0.5,0.8c0,0.3,0.3,0.6,0.5,0.8
	c0.3,0.5,0.2,1,0.1,1.7c-0.1,1.1,0,2.4,0.4,3.5c-0.6,0.1-1.2,0.1-1.9,0.2c-0.3,0.4-0.3,0.9-0.2,1.5c-5.8-7.9-9.4-17.7-9.4-28.3
	C2.2,62.2,2.3,60.3,2.5,58.5z"/>
</svg>
