<?xml version="1.0" encoding="utf-8"?>
<!-- Generator: Adobe Illustrator 25.4.1, SVG Export Plug-In . SVG Version: 6.00 Build 0)  -->
<svg version="1.1" id="Layer_1" xmlns="http://www.w3.org/2000/svg" xmlns:xlink="http://www.w3.org/1999/xlink" x="0px" y="0px"
	 viewBox="0 0 500 625" style="enable-background:new 0 0 500 625;" xml:space="preserve">
<path d="M480.3,10.9c-24.2,13.2-49.6,24.1-75.7,32.8c-79,26.2-281.5,115.9-193.2,327C320.4,172.8,442,71.1,442,71.1
	C339.9,199,282.1,275.9,233.3,364.1c-14.1,25.5-23.5,42-34,68.5c-7-19-17.6-44.8-25.3-60.6c-30.6-62.8-81.2-144.3-134-210.3
	c0,0,92,86.3,149,215.5c2.7-3.5,5.1-7.1,7.3-10.9c-21.8-42.7-30.7-106.6-11.5-157.5c-41.3-39.9-143-71.1-182.6-98.4
	c0,0-25.9,208.6,96,267.2c23.4,11.3,50.1,12.3,66.8,12.6c7.1,0.1,19.2,38.4,26.1,64.2c-2.9,8.2-5.9,17.4-9.2,27.8
	c-2.2,7,17.8,22.7,17.1,16.2c-2.7-25.3,28.1-107.9,45.7-107.3c24.2,0.9,61.4-2.6,97.3-13.2c52-15.4,134.9-67,145.9-231.6
	c2-29.2,4-58.3,6.6-87.4L500,0C492.9,4,486.4,7.6,480.3,10.9z"/>
</svg>
