{
  "accessors": [
    {
      "bufferView": 2,
      "componentType": 5126,
      "count": 264,
      "max": [
        2.2421760559082031,
        1.0574289560317993,
        0.70604199171066284
      ],
      "min": [
        -5.0379629135131836,
        -0.28220599889755249,
        -0.63359200954437256
      ],
      "type": "VEC3"
    },
    {
      "bufferView": 2,
      "byteOffset": 3168,
      "componentType": 5126,
      "count": 264,
      "max": [
        0.22649687528610229,
        0.92259019613265991,
        0.92259019613265991
      ],
      "min": [
        -0.97040611505508423,
        -0.92259019613265991,
        -0.92259019613265991
      ],
      "type": "VEC3"
    },
    {
      "bufferView": 1,
      "componentType": 5126,
      "count": 264,
      "max": [
        7.8681037582741614e+34,
        7.8719775357193437e+31
      ],
      "min": [
        -0.0033467374742031097,
        0
      ],
      "type": "VEC2"
    },
    {
      "bufferView": 0,
      "componentType": 5125,
      "count": 264,
      "max": [
        263
      ],
      "min": [
        0
      ],
      "type": "SCALAR"
    },
    {
      "bufferView": 2,
      "byteOffset": 6336,
      "componentType": 5126,
      "count": 96,
      "max": [
        4.0098428726196289,
        1.1325030326843262,
        0.77985399961471558
      ],
      "min": [
        2.7123990058898926,
        -0.35727998614311218,
        -0.70740401744842529
      ],
      "type": "VEC3"
    },
    {
      "bufferView": 2,
      "byteOffset": 7488,
      "componentType": 5126,
      "count": 96,
      "max": [
        0.39829656481742859,
        0.90003186464309692,
        0.89893621206283569
      ],
      "min": [
        -0.26859337091445923,
        -0.90003186464309692,
        -0.91102033853530884
      ],
      "type": "VEC3"
    },
    {
      "bufferView": 1,
      "byteOffset": 2112,
      "componentType": 5126,
      "count": 96,
      "max": [
        6.1289734346560193e+31,
        4.7428876964261486e+30
      ],
      "min": [
        0,
        0
      ],
      "type": "VEC2"
    },
    {
      "bufferView": 0,
      "byteOffset": 1056,
      "componentType": 5125,
      "count": 96,
      "max": [
        95
      ],
      "min": [
        0
      ],
      "type": "SCALAR"
    },
    {
      "bufferView": 2,
      "byteOffset": 8640,
      "componentType": 5126,
      "count": 141,
      "max": [
        2.712399959564209,
        1.0209109783172607,
        0.66952502727508545
      ],
      "min": [
        2.2421760559082031,
        -0.24568800628185272,
        -0.59707498550415039
      ],
      "type": "VEC3"
    },
    {
      "bufferView": 2,
      "byteOffset": 10332,
      "componentType": 5126,
      "count": 141,
      "max": [
        1,
        0.92387664318084717,
        0.92387664318084717
      ],
      "min": [
        -1,
        -0.92387664318084717,
        -0.92387664318084717
      ],
      "type": "VEC3"
    },
    {
      "bufferView": 1,
      "byteOffset": 2880,
      "componentType": 5126,
      "count": 141,
      "max": [
        7.2064696748654245e+31,
        4.7428876964261486e+30
      ],
      "min": [
        0,
        0
      ],
      "type": "VEC2"
    },
    {
      "bufferView": 0,
      "byteOffset": 1440,
      "componentType": 5125,
      "count": 144,
      "max": [
        140
      ],
      "min": [
        0
      ],
      "type": "SCALAR"
    },
    {
      "bufferView": 2,
      "byteOffset": 12024,
      "componentType": 5126,
      "count": 120,
      "max": [
        5.0261759757995605,
        0.91755199432373047,
        0.49090498685836792
      ],
      "min": [
        3.899055004119873,
        -0.14232900738716125,
        -0.56316900253295898
      ],
      "type": "VEC3"
    },
    {
      "bufferView": 2,
      "byteOffset": 13464,
      "componentType": 5126,
      "count": 120,
      "max": [
        0.93591779470443726,
        0.87133550643920898,
        0.93929809331893921
      ],
      "min": [
        -0.56538885831832886,
        -0.88127613067626953,
        -0.82168805599212646
      ],
      "type": "VEC3"
    },
    {
      "bufferView": 1,
      "byteOffset": 4008,
      "componentType": 5126,
      "count": 120,
      "max": [
        7.2059590245992193e+31,
        4.7428876964261486e+30
      ],
      "min": [
        0,
        0
      ],
      "type": "VEC2"
    },
    {
      "bufferView": 0,
      "byteOffset": 2016,
      "componentType": 5125,
      "count": 120,
      "max": [
        119
      ],
      "min": [
        0
      ],
      "type": "SCALAR"
    }
  ],
  "asset": {
    "extras": {
      "author": "IronEqual (https://sketchfab.com/ie-niels)",
      "license": "CC-BY-4.0 (http://creativecommons.org/licenses/by/4.0/)",
      "source": "https://sketchfab.com/3d-models/paint-brush-from-poly-by-google-e058ffe6bd86485c9200ac685649e526",
      "title": "Paint brush from Poly by Google"
    },
    "generator": "Sketchfab-9.96.0",
    "version": "2.0"
  },
  "bufferViews": [
    {
      "buffer": 0,
      "byteLength": 2496,
      "byteOffset": 0,
      "name": "floatBufferViews",
      "target": 34963
    },
    {
      "buffer": 0,
      "byteLength": 4968,
      "byteOffset": 2496,
      "byteStride": 8,
      "name": "floatBufferViews",
      "target": 34962
    },
    {
      "buffer": 0,
      "byteLength": 14904,
      "byteOffset": 7464,
      "byteStride": 12,
      "name": "floatBufferViews",
      "target": 34962
    }
  ],
  "buffers": [
    {
      "byteLength": 22368,
      "uri": "scene.bin"
    }
  ],
  "materials": [
    {
      "doubleSided": true,
      "emissiveFactor": [
        0,
        0,
        0
      ],
      "name": "80DEEA",
      "pbrMetallicRoughness": {
        "baseColorFactor": [
          0.50196099999999999,
          0.87058800000000003,
          0.91764699999999999,
          1
        ],
        "metallicFactor": 0,
        "roughnessFactor": 0.74480199999999996
      }
    },
    {
      "doubleSided": true,
      "emissiveFactor": [
        0,
        0,
        0
      ],
      "name": "795548",
      "pbrMetallicRoughness": {
        "baseColorFactor": [
          0.47450999999999999,
          0.33333299999999999,
          0.28235300000000002,
          1
        ],
        "metallicFactor": 0,
        "roughnessFactor": 0.74480199999999996
      }
    },
    {
      "doubleSided": true,
      "emissiveFactor": [
        0,
        0,
        0
      ],
      "name": "455A64",
      "pbrMetallicRoughness": {
        "baseColorFactor": [
          0.270588,
          0.352941,
          0.39215699999999998,
          1
        ],
        "metallicFactor": 0,
        "roughnessFactor": 0.74480199999999996
      }
    },
    {
      "doubleSided": true,
      "emissiveFactor": [
        0,
        0,
        0
      ],
      "name": "039BE5",
      "pbrMetallicRoughness": {
        "baseColorFactor": [
          0.011764999999999999,
          0.60784300000000002,
          0.89803900000000003,
          1
        ],
        "metallicFactor": 0,
        "roughnessFactor": 0.74480199999999996
      }
    }
  ],
  "meshes": [
    {
      "primitives": [
        {
          "attributes": {
            "NORMAL": 1,
            "POSITION": 0,
            "TEXCOORD_0": 2
          },
          "indices": 3,
          "material": 0,
          "mode": 4
        }
      ]
    },
    {
      "primitives": [
        {
          "attributes": {
            "NORMAL": 5,
            "POSITION": 4,
            "TEXCOORD_0": 6
          },
          "indices": 7,
          "material": 1,
          "mode": 4
        }
      ]
    },
    {
      "primitives": [
        {
          "attributes": {
            "NORMAL": 9,
            "POSITION": 8,
            "TEXCOORD_0": 10
          },
          "indices": 11,
          "material": 2,
          "mode": 4
        }
      ]
    },
    {
      "primitives": [
        {
          "attributes": {
            "NORMAL": 13,
            "POSITION": 12,
            "TEXCOORD_0": 14
          },
          "indices": 15,
          "material": 3,
          "mode": 4
        }
      ]
    }
  ],
  "nodes": [
    {
      "children": [
        1
      ],
      "name": "RootNode (gltf orientation matrix)",
      "rotation": [
        -0.70710678118654746,
        -0,
        -0,
        0.70710678118654757
      ]
    },
    {
      "children": [
        2
      ],
      "name": "RootNode (model correction matrix)"
    },
    {
      "children": [
        3
      ],
      "name": "root"
    },
    {
      "children": [
        4
      ],
      "matrix": [
        1,
        0,
        0,
        0,
        0,
        2.2204460492503131e-16,
        1,
        0,
        0,
        -1,
        2.2204460492503131e-16,
        0,
        0,
        0,
        0,
        1
      ],
      "name": "GLTF_SceneRootNode"
    },
    {
      "children": [
        5,
        6,
        7,
        8
      ],
      "name": "node-0_0"
    },
    {
      "mesh": 0,
      "name": ""
    },
    {
      "mesh": 1,
      "name": ""
    },
    {
      "mesh": 2,
      "name": ""
    },
    {
      "mesh": 3,
      "name": ""
    }
  ],
  "scene": 0,
  "scenes": [
    {
      "name": "OSG_Scene",
      "nodes": [
        0
      ]
    }
  ]
}

