{
  "accessors": [
    {
      "bufferView": 2,
      "componentType": 5126,
      "count": 119,
      "max": [
        0.98862165212631226,
        2.3893897533416748,
        0.95105659961700439
      ],
      "min": [
        -0.98862177133560181,
        0.41214632987976074,
        -0.95105671882629395
      ],
      "type": "VEC3"
    },
    {
      "bufferView": 2,
      "byteOffset": 1428,
      "componentType": 5126,
      "count": 119,
      "max": [
        0.98900794982910156,
        0.98862171173095703,
        0.95105665922164917
      ],
      "min": [
        -0.98900794982910156,
        -0.98862177133560181,
        -0.95105659961700439
      ],
      "type": "VEC3"
    },
    {
      "bufferView": 3,
      "componentType": 5126,
      "count": 119,
      "max": [
        0.8306470513343811,
        0.6589200496673584,
        0.78668445348739624,
        1
      ],
      "min": [
        -0.86768454313278198,
        -0.99265742301940918,
        -0.8263169527053833,
        1
      ],
      "type": "VEC4"
    },
    {
      "bufferView": 1,
      "componentType": 5126,
      "count": 119,
      "max": [
        0.59978842735290527,
        0.984375
      ],
      "min": [
        0.015625,
        0.015625
      ],
      "type": "VEC2"
    },
    {
      "bufferView": 0,
      "componentType": 5125,
      "count": 540,
      "max": [
        118
      ],
      "min": [
        0
      ],
      "type": "SCALAR"
    },
    {
      "bufferView": 2,
      "byteOffset": 2856,
      "componentType": 5126,
      "count": 186,
      "max": [
        1.1256262063980103,
        2.469635009765625,
        0.71135175228118896
      ],
      "min": [
        -0.55088019371032715,
        0.015986442565917969,
        -0.71135175228118896
      ],
      "type": "VEC3"
    },
    {
      "bufferView": 2,
      "byteOffset": 5088,
      "componentType": 5126,
      "count": 186,
      "max": [
        0.99998223781585693,
        1,
        1
      ],
      "min": [
        -0.99998259544372559,
        -1,
        -1
      ],
      "type": "VEC3"
    },
    {
      "bufferView": 3,
      "byteOffset": 1904,
      "componentType": 5126,
      "count": 186,
      "max": [
        0.99739772081375122,
        0.99998313188552856,
        1,
        1
      ],
      "min": [
        -0.99589705467224121,
        -0.99786585569381714,
        -1,
        1
      ],
      "type": "VEC4"
    },
    {
      "bufferView": 1,
      "byteOffset": 952,
      "componentType": 5126,
      "count": 186,
      "max": [
        0.97997766733169556,
        0.90414679050445557
      ],
      "min": [
        0.39152222871780396,
        0.015625
      ],
      "type": "VEC2"
    },
    {
      "bufferView": 0,
      "byteOffset": 2160,
      "componentType": 5125,
      "count": 354,
      "max": [
        185
      ],
      "min": [
        0
      ],
      "type": "SCALAR"
    }
  ],
  "asset": {
    "extras": {
      "author": "Pixel-bit (https://sketchfab.com/Pixel-bit)",
      "license": "CC-BY-4.0 (http://creativecommons.org/licenses/by/4.0/)",
      "source": "https://sketchfab.com/models/2a121ed809284b1eb0f39c8e76a25c9b",
      "title": "Globe - Household Props Challenge - Day 17"
    },
    "generator": "Sketchfab-3.20.8",
    "version": "2.0"
  },
  "bufferViews": [
    {
      "buffer": 0,
      "byteLength": 3576,
      "byteOffset": 0,
      "name": "floatBufferViews",
      "target": 34963
    },
    {
      "buffer": 0,
      "byteLength": 2440,
      "byteOffset": 3576,
      "byteStride": 8,
      "name": "floatBufferViews",
      "target": 34962
    },
    {
      "buffer": 0,
      "byteLength": 7320,
      "byteOffset": 6016,
      "byteStride": 12,
      "name": "floatBufferViews",
      "target": 34962
    },
    {
      "buffer": 0,
      "byteLength": 4880,
      "byteOffset": 13336,
      "byteStride": 16,
      "name": "floatBufferViews",
      "target": 34962
    }
  ],
  "buffers": [
    {
      "byteLength": 18216,
      "uri": "scene.bin"
    }
  ],
  "images": [
    {
      "uri": "textures/blinn1_baseColor.png"
    },
    {
      "uri": "textures/blinn1_metallicRoughness.png"
    }
  ],
  "materials": [
    {
      "doubleSided": true,
      "name": "blinn1",
      "occlusionTexture": {
        "index": 1,
        "strength": 1,
        "texCoord": 0
      },
      "pbrMetallicRoughness": {
        "baseColorFactor": [
          1,
          1,
          1,
          1
        ],
        "baseColorTexture": {
          "index": 0,
          "texCoord": 0
        },
        "metallicFactor": 0,
        "roughnessFactor": 0.92074838159999994
      }
    }
  ],
  "meshes": [
    {
      "name": "pSphere1_blinn1_0",
      "primitives": [
        {
          "attributes": {
            "NORMAL": 1,
            "POSITION": 0,
            "TANGENT": 2,
            "TEXCOORD_0": 3
          },
          "indices": 4,
          "material": 0,
          "mode": 4
        }
      ]
    },
    {
      "name": "pCylinder2_blinn1_0",
      "primitives": [
        {
          "attributes": {
            "NORMAL": 6,
            "POSITION": 5,
            "TANGENT": 7,
            "TEXCOORD_0": 8
          },
          "indices": 9,
          "material": 0,
          "mode": 4
        }
      ]
    }
  ],
  "nodes": [
    {
      "children": [
        1
      ],
      "name": "RootNode (gltf orientation matrix)",
      "rotation": [
        -0.70710678118654746,
        -0,
        -0,
        0.70710678118654757
      ]
    },
    {
      "children": [
        2
      ],
      "name": "RootNode (model correction matrix)"
    },
    {
      "children": [
        3
      ],
      "matrix": [
        1,
        0,
        0,
        0,
        0,
        0,
        1,
        0,
        0,
        -1,
        0,
        0,
        0,
        0,
        0,
        1
      ],
      "name": "cb836c9091d8487097dd3669c355f05c.fbx"
    },
    {
      "children": [
        4,
        6
      ],
      "name": "RootNode"
    },
    {
      "children": [
        5
      ],
      "matrix": [
        0.36952955352752448,
        0.097239680381731919,
        -0.92411706705860974,
        0,
        0.097239680381733445,
        0.9850023811684655,
        0.14252983425132865,
        0,
        0.92411706705860952,
        -0.1425298342513297,
        0.35453193469598998,
        0,
        -0.13621023297309875,
        0.021008184179663658,
        -0.19965122640132904,
        1
      ],
      "name": "pSphere1"
    },
    {
      "mesh": 0,
      "name": "pSphere1_blinn1_0"
    },
    {
      "children": [
        7
      ],
      "name": "pCylinder2"
    },
    {
      "mesh": 1,
      "name": "pCylinder2_blinn1_0"
    }
  ],
  "samplers": [
    {
      "magFilter": 9729,
      "minFilter": 9987,
      "wrapS": 10497,
      "wrapT": 10497
    }
  ],
  "scene": 0,
  "scenes": [
    {
      "name": "OSG_Scene",
      "nodes": [
        0
      ]
    }
  ],
  "textures": [
    {
      "sampler": 0,
      "source": 0
    },
    {
      "sampler": 0,
      "source": 1
    }
  ]
}

